<?xml version="1.0" encoding="utf-8"?>
<!-- Generator: Adobe Illustrator 25.0.0, SVG Export Plug-In . SVG Version: 6.00 Build 0)  -->
<svg version="1.1" id="图层_1" xmlns="http://www.w3.org/2000/svg" xmlns:xlink="http://www.w3.org/1999/xlink" x="0px" y="0px"
	 viewBox="0 0 200 200" style="enable-background:new 0 0 200 200;" xml:space="preserve">
<style type="text/css">
	.st0{fill:#FFFFFF;stroke:#000000;stroke-width:10;stroke-miterlimit:10;}
	.st1{fill:#231F20;}
	.st2{fill:#FFFFFF;}
</style>
<path class="st0" d="M15.1,129.9c0,24,14.6,52.6,84.9,52.6c70.1,0,84.9-28.6,84.9-52.6c-0.1-14.7-3.1-29.3-8.8-42.9
	c16.4-28.2,15.7-44.7,15.5-46.4l-0.2-1.8c-0.1-2.4-2-4.4-4.4-4.8l-1.6-0.4c-5.8-0.8-11.7-1.3-17.7-1.2c-11.3,0-26.8,1.6-39.2,9.2
	c-6-2-12.2-3.3-18.5-3.9c-0.3-0.1-0.7-0.2-1.1-0.2c-2.5-0.2-4.8-0.4-7.2-0.4h-1.9c-8.5-0.1-16.9,1-25.1,3.4
	C56.1,24,25.9,18.2,24.5,18l-2.1-0.4c-0.4,0-0.7-0.2-1.1-0.2c-1.1,0-2.1,0.3-3,0.9c-1.2,0.8-2,2.1-2.1,3.5l-0.4,2.3
	C15.3,27,11.6,52.8,26.9,81C19.2,96.2,15.1,112.9,15.1,129.9z"/>
<path class="st1" d="M124.4,113.5c0,6.8,5.5,12.4,12.4,12.4c6.8,0,12.4-5.5,12.4-12.4c0-6.8-5.5-12.4-12.3-12.4
	C129.9,101.1,124.4,106.7,124.4,113.5L124.4,113.5z"/>
<path class="st2" d="M132.9,110.1c0,3.2,2.6,5.8,5.8,5.8s5.8-2.6,5.8-5.8c0-3.2-2.6-5.8-5.8-5.8S132.9,106.9,132.9,110.1z"/>
<path class="st1" d="M57.3,113.5c0,6.8,5.5,12.4,12.4,12.4c6.8,0,12.4-5.5,12.4-12.4s-5.5-12.4-12.4-12.4S57.3,106.7,57.3,113.5z"/>
<path class="st2" d="M67.2,110.9c0,3.2,2.6,5.8,5.8,5.8c3.2,0,5.8-2.6,5.8-5.8c0-3.2-2.6-5.8-5.8-5.8
	C69.8,105,67.2,107.6,67.2,110.9z"/>
<path class="st2" d="M128.6,151.8c0,10.9-11.3,14.5-25.4,14.5c-13.9,0-25.4-3.5-25.4-14.5c0-10.9,11.3-25.2,25.4-25.2
	C117.1,126.6,128.6,140.9,128.6,151.8z"/>
<path class="st1" d="M111,133.7c0,4.5-7.9,8.1-7.9,8.1s-7.9-3.7-7.9-8.1C95.2,129.1,111,129.1,111,133.7z M95.8,159.9l-5.7-8.3
	c-0.6-0.8-0.4-1.9,0.4-2.5s1.9-0.4,2.4,0.4l4.5,6.4l17-2.3c1-0.1,1.9,0.6,2.1,1.6c0.1,1-0.6,2-1.6,2.1h-0.1L95.8,159.9z"/>
<path class="st1" d="M199.2,131.3c-0.2,0-0.4,0-0.5-0.2c-11.6-6.7-25.1-4.2-25.2-4.2c-0.5,0.1-1-0.2-1-0.7c-0.1-0.5,0.2-0.9,0.7-1
	c9.1-1.5,18.4,0,26.5,4.4c0.5,0.2,0.5,0.9,0.4,1.2C199.9,131.2,199.6,131.3,199.2,131.3z M193.4,142.8c-0.3,0-0.5-0.2-0.7-0.4
	c-7.4-7.9-21.9-9.2-22.1-9.2c-0.5,0-0.9-0.5-0.9-1.1c0-0.5,0.5-0.9,1.1-0.9l0,0c0.7,0,15.4,1.2,23.3,9.7c0.3,0.3,0.4,0.9,0,1.2l0,0
	C193.7,142.8,193.6,142.8,193.4,142.8z M186.3,154.8c-0.4,0-0.7-0.2-0.9-0.5c-5.6-9.9-17.7-11.8-17.8-11.8c-0.5-0.1-0.8-0.6-0.7-1
	c0.1-0.5,0.6-0.8,1-0.7l0,0c0.5,0,13.1,1.9,19.1,12.7c0.2,0.5,0.2,1.1-0.4,1.2C186.7,154.8,186.5,154.8,186.3,154.8z"/>
<path class="st1" d="M-1.7,124c-0.4,0-0.7-0.2-0.9-0.6c-0.2-0.6-0.2-1.2,0.4-1.4c8.2-4.8,17.7-6.5,26.9-4.8c0.5,0.2,0.9,0.6,0.7,1.2
	c-0.2,0.6-0.5,1-1.1,0.8c-0.2,0-13.8-2.7-25.7,4.7C-1.3,124-1.5,124-1.7,124z M4.2,136.6c-0.3,0-0.5,0-0.7-0.2
	c-0.3-0.4-0.4-0.9,0-1.3l0,0c8.1-9.3,23-10.7,23.7-10.7c0.5-0.1,1,0.4,1.1,1c0,0.6-0.4,1.1-0.9,1.2l0,0c-0.2,0-14.9,1.4-22.4,10.1
	L4.2,136.6z M11.4,149.7c-0.2,0-0.4,0-0.5-0.2c-0.5-0.2-0.5-1-0.4-1.4c6.3-11.8,18.8-14,19.4-14s1.1,0.4,1.1,0.8
	c0,0.6-0.4,1.2-0.7,1.2c-0.2,0-12.4,2.1-18.1,13C12.1,149.5,11.7,149.7,11.4,149.7z"/>
</svg>
