<?xml version="1.0" encoding="utf-8"?>
<!-- Generator: Adobe Illustrator 25.0.0, SVG Export Plug-In . SVG Version: 6.00 Build 0)  -->
<svg version="1.1" id="图层_1" xmlns="http://www.w3.org/2000/svg" xmlns:xlink="http://www.w3.org/1999/xlink" x="0px" y="0px"
	 viewBox="0 0 200 200" style="enable-background:new 0 0 200 200;" xml:space="preserve">
<style type="text/css">
	.st0{fill:#FFFFFF;}
</style>
<path d="M38.9,33.8c1.9,0,3.7,0.4,5.4,1.1l31.9,14.1L25.5,86.8V47.2C25.5,39.8,31.5,33.8,38.9,33.8z M38.9,39.2
	c-4.2,0-7.6,3.2-8,7.2l0,0.8v29l34.8-25.9L42.1,39.9c-0.8-0.3-1.6-0.6-2.4-0.6C39.7,39.2,38.9,39.2,38.9,39.2z M160.5,33.8
	c-1.9,0-3.7,0.4-5.4,1.1l-31.9,14.1l50.7,37.7V47.2C173.8,39.8,167.8,33.8,160.5,33.8L160.5,33.8z M160.5,39.2c4.2,0,7.6,3.2,8,7.2
	l0,0.8v29l-34.8-25.9l23.5-10.4c0.8-0.3,1.6-0.6,2.4-0.6L160.5,39.2L160.5,39.2z"/>
<path class="st0" d="M22.7,103.6c0,35.1,34.4,63.5,76.9,63.5s76.9-28.4,76.9-63.5c0-35.1-34.4-63.5-76.9-63.5S22.7,68.5,22.7,103.6
	C22.7,103.5,22.7,103.5,22.7,103.6z"/>
<path class="st0" d="M98.1,106.5c24,0,45,19.1,45,50.5V156c-12.4,7-27.3,11.1-43.5,11.1S68.5,163,56.1,156
	C56.5,125.2,74.3,106.5,98.1,106.5z"/>
<path d="M99.6,40c42.5,0,76.9,28.4,76.9,63.5s-34.4,63.5-76.9,63.5c-42.5,0-76.9-28.4-76.9-63.5S57.1,40,99.6,40z M99.6,45.4
	C59.9,45.4,28,71.7,28,103.6s31.8,58.2,71.5,58.2c39.7,0,71.5-26.3,71.5-58.2S139.3,45.4,99.6,45.4L99.6,45.4z"/>
<path d="M69.5,86.8L69.5,86.8c4.5,0,6.7,2.2,6.7,6.7v6.7c0,4.5-2.2,6.7-6.7,6.7l0,0c-4.5,0-6.7-2.2-6.7-6.7v-6.7
	C62.8,89.1,65,86.8,69.5,86.8z"/>
<path d="M129.7,86.8L129.7,86.8c4.5,0,6.7,2.2,6.7,6.7v6.7c0,4.5-2.2,6.7-6.7,6.7l0,0c-4.5,0-6.7-2.2-6.7-6.7v-6.7
	C123,89.1,125.2,86.8,129.7,86.8z"/>
<path d="M50.2,114.2c1.5,0,2.7,1.2,2.7,2.7c0,1.3-0.9,2.4-2.2,2.6l-0.5,0H16c-1.5,0-2.7-1.2-2.7-2.7c0-1.3,0.9-2.4,2.2-2.7l0.5,0
	L50.2,114.2L50.2,114.2z M43.4,127.1c1.3-0.7,2.9-0.3,3.6,1c0.6,1.1,0.4,2.5-0.6,3.3l-0.4,0.3L20.7,146c-1.3,0.7-2.9,0.3-3.7-1
	c-0.6-1.1-0.4-2.5,0.6-3.4l0.4-0.3L43.4,127.1L43.4,127.1z M183.2,114.2c1.5,0,2.7,1.2,2.7,2.7c0,1.3-0.9,2.4-2.2,2.6l-0.5,0h-33.4
	c-1.5,0-2.7-1.2-2.7-2.7c0-1.3,0.9-2.4,2.2-2.7l0.5,0L183.2,114.2L183.2,114.2z M150.7,129.1c0.6-1.1,1.9-1.7,3.1-1.4l0.5,0.2
	l26.7,13.4c1.3,0.6,1.9,2.2,1.2,3.6c-0.6,1.2-1.9,1.8-3.1,1.4l-0.5-0.2l-26.7-13.4C150.6,132,150.1,130.4,150.7,129.1
	C150.7,129.1,150.7,129.1,150.7,129.1z M116.8,123.9c1.4,0.3,2.3,1.8,2,3.2c0,0,0,0,0,0c-1.5,6.7-5.5,10.4-11.6,10.4
	c-3.5,0-6.4-1-8.5-2.9l-0.4-0.4l-0.1,0.1c-1.8,1.9-4.5,3-7.8,3.2l-1.1,0c-6.4,0-10.5-3.7-12-10.4c-0.3-1.4,0.6-2.9,2-3.2
	c1.4-0.3,2.9,0.6,3.2,2c0.9,4.4,3,6.2,6.7,6.2c3.9,0,5.6-1.2,6.2-3.9c0.6-2.7,4.3-2.9,5.2-0.3c1,2.9,3,4.2,6.6,4.2
	c3.4,0,5.4-1.8,6.4-6.2c0.3-1.3,1.4-2.1,2.7-2.1L116.8,123.9L116.8,123.9z"/>
<path d="M98.1,117.6c3.7,0,6.7-1.5,6.7-3.3c0-1.8-3-3.3-6.7-3.3c-3.7,0-6.7,1.5-6.7,3.3C91.4,116.1,94.4,117.6,98.1,117.6z"/>
<path d="M151.4,80.8c1.1,1.5,0.8,3.6-0.6,4.7c-1.4,1.1-3.5,0.8-4.6-0.6c-6.8-8.7-14.5-14.3-23.1-16.8c-1.8-0.5-2.8-2.4-2.3-4.1
	c0.5-1.8,2.4-2.8,4.1-2.3l0,0C134.9,64.7,143.7,71.1,151.4,80.8z"/>
<path d="M74.2,62.5L74.2,62.5c1.8-0.5,3.6,0.5,4.1,2.3c0.5,1.8-0.5,3.6-2.3,4.1c-8.5,2.5-16.2,8.1-23.1,16.8
	c-1.1,1.4-3.2,1.6-4.6,0.6C47,85,46.7,83,47.8,81.5C55.4,71.8,64.3,65.4,74.2,62.5z"/>
</svg>
