<svg t="1683620537932" class="icon" viewBox="0 0 1024 1024" version="1.1" xmlns="http://www.w3.org/2000/svg" p-id="4260" width="200" height="200"><path d="M830.31 154.32h-86.1v-31.28c0-16.57-13.43-30-30-30s-30 13.43-30 30v31.28H339.79v-31.28c0-16.57-13.43-30-30-30s-30 13.43-30 30v31.28h-86.1c-50.23 0-91.1 40.87-91.1 91.1v589.12c0 50.23 40.87 91.1 91.1 91.1h636.62c50.23 0 91.1-40.87 91.1-91.1V245.42c0-50.23-40.87-91.1-91.1-91.1z m-636.62 60h86.1v4.72c0 16.57 13.43 30 30 30s30-13.43 30-30v-4.72h344.42v4.72c0 16.57 13.43 30 30 30s30-13.43 30-30v-4.72h86.1c17.15 0 31.1 13.95 31.1 31.1v59.03H162.6v-59.03c0-17.15 13.95-31.1 31.1-31.1z m636.62 651.32H193.69c-17.15 0-31.1-13.95-31.1-31.1V364.45H861.4v470.1c0 17.15-13.95 31.1-31.1 31.1zM409.57 530.2c0 16.57-13.43 30-30 30H309.1c-16.57 0-30-13.43-30-30s13.43-30 30-30h70.47c16.57 0 30 13.43 30 30z m167.67 0c0 16.57-13.43 30-30 30h-70.47c-16.57 0-30-13.43-30-30s13.43-30 30-30h70.47c16.57 0 30 13.43 30 30zM409.57 702.88c0 16.57-13.43 30-30 30H309.1c-16.57 0-30-13.43-30-30s13.43-30 30-30h70.47c16.57 0 30 13.43 30 30z m167.67 0c0 16.57-13.43 30-30 30h-70.47c-16.57 0-30-13.43-30-30s13.43-30 30-30h70.47c16.57 0 30 13.43 30 30zM744.91 530.2c0 16.57-13.43 30-30 30h-70.47c-16.57 0-30-13.43-30-30s13.43-30 30-30h70.47c16.57 0 30 13.43 30 30z" p-id="4261"></path></svg>