<?xml version="1.0" encoding="utf-8"?>
<!-- Generator: Adobe Illustrator 25.0.0, SVG Export Plug-In . SVG Version: 6.00 Build 0)  -->
<svg version="1.1" id="图层_1" xmlns="http://www.w3.org/2000/svg" xmlns:xlink="http://www.w3.org/1999/xlink" x="0px" y="0px"
	 viewBox="0 0 200 200" style="enable-background:new 0 0 200 200;" xml:space="preserve">
<style type="text/css">
	.st0{fill:#176CFA;}
</style>
<path class="st0" d="M162.2,30.1h-16.8V24c0-3.2-2.6-5.9-5.9-5.9s-5.9,2.6-5.9,5.9v6.1H66.4V24c0-3.2-2.6-5.9-5.9-5.9
	c-3.2,0-5.9,2.6-5.9,5.9v6.1H37.8c-9.8,0-17.8,8-17.8,17.8V163c0,9.8,8,17.8,17.8,17.8h124.3c9.8,0,17.8-8,17.8-17.8V47.9
	C180,38.1,172,30.1,162.2,30.1z M37.8,41.9h16.8v0.9c0,3.2,2.6,5.9,5.9,5.9c3.2,0,5.9-2.6,5.9-5.9v-0.9h67.3v0.9
	c0,3.2,2.6,5.9,5.9,5.9s5.9-2.6,5.9-5.9v-0.9h16.8c3.3,0,6.1,2.7,6.1,6.1v11.5H31.8V47.9C31.8,44.6,34.5,41.9,37.8,41.9L37.8,41.9z
	 M162.2,169.1H37.8c-3.3,0-6.1-2.7-6.1-6.1V71.2h136.5V163C168.2,166.3,165.5,169.1,162.2,169.1L162.2,169.1z M80,103.6
	c0,3.2-2.6,5.9-5.9,5.9H60.4c-3.2,0-5.9-2.6-5.9-5.9s2.6-5.9,5.9-5.9h13.8C77.4,97.7,80,100.3,80,103.6z M112.7,103.6
	c0,3.2-2.6,5.9-5.9,5.9H93.1c-3.2,0-5.9-2.6-5.9-5.9s2.6-5.9,5.9-5.9h13.8C110.1,97.7,112.7,100.3,112.7,103.6z M80,137.3
	c0,3.2-2.6,5.9-5.9,5.9H60.4c-3.2,0-5.9-2.6-5.9-5.9s2.6-5.9,5.9-5.9h13.8C77.4,131.4,80,134,80,137.3z M112.7,137.3
	c0,3.2-2.6,5.9-5.9,5.9H93.1c-3.2,0-5.9-2.6-5.9-5.9s2.6-5.9,5.9-5.9h13.8C110.1,131.4,112.7,134,112.7,137.3z M145.5,103.6
	c0,3.2-2.6,5.9-5.9,5.9h-13.8c-3.2,0-5.9-2.6-5.9-5.9s2.6-5.9,5.9-5.9h13.8C142.9,97.7,145.5,100.3,145.5,103.6L145.5,103.6z"/>
</svg>
