<?xml version="1.0" encoding="UTF-8"?><svg id="Layer_1" xmlns="http://www.w3.org/2000/svg" viewBox="0 0 1479.17 2758.54"><defs><style>.cls-1{fill:#f1e0b1;}.cls-2{fill:#efdba7;}.cls-3{fill:#a68c72;}.cls-4{fill:none;}.cls-5{fill:#f3e4bc;}</style></defs><path class="cls-4" d="M837.08,763.96c-.58-4.82-1.25-9.63-2-14.42"/><g><path class="cls-3" d="M138.86,2758.44c-12.74,1.28-24.24-10.41-27.1-23.07-2.94-13.04,.79-26.56,4.5-39.41,104.34-362.07,194.71-727.85,296.8-1090.42,11.76-41.78,25.53-83.14,36.06-125.25,34.35-126.63,69.52-253.16,99.95-380.8,11.08-46.39,21.87-92.93,36.44-138.39,9.76-30.47,17.75-60.91,24.48-91.95,.42-1.95,1.2-3.83,1.91-5.7,7.1-18.79,20.09-29.05,32.14-25.42,13.06,3.93,19.04,16.58,14.44,37.99-6.47,30.16-14.62,59.97-22.59,89.79-96.96,362.76-199.2,724.06-299.7,1085.84-65.43,235.53-130.72,471.1-196.16,706.63-.39,.06-.78,.11-1.16,.15Z"/><path class="cls-2" d="M711.49,707.25c-1.14,20.41-2.97,40.82-3.16,61.24-.12,13.21-5.75,21.97-16.64,29.33-13.96-5.02-21.67-12.06-19.2-29.36,2.05-14.32-1-29.37-1.95-47.25-6.81,3.66-12.69,5.84-17.36,9.55-6.49,5.15-11.81,11.75-18.1,17.17-13.35,11.48-21.23,12.21-30.21,3.49-8.67-8.42-8.16-16.52,3.05-30.66,5.66-7.14,12.65-13.22,18.59-20.15,2.41-2.81,3.63-6.64,5.79-10.75-16.68-9.39-37.6,9.33-50.27-12.08,3.86-27.81,38.29-10.38,47.81-30.36q-11.18-21.1,2.47-36.61c13.6,6.02,27.8,12.3,44.21,19.56,2.05-14.21,3.87-26.85,5.83-40.48,9.92-1.3,18.75-2.45,29.76-3.9,2.92,13.6,5.8,27.05,9.49,44.21,7.29-4.12,12.46-7.21,17.77-10.01,7.26-3.83,14.4-9.62,22.04-10.46,6.28-.69,14.85,2.99,19.46,7.64,5.94,6,7.41,15.07,.6,22.63-2.76,3.06-6.42,5.3-13.47,10.97,22.71,6.99,39.45,12.15,60.69,18.69-22.63,12.88-44.97,6.72-66.06,16.72,7.93,10.87,14.3,21.29,22.37,30.16,7.2,7.91,10.61,14.81,2.85,23.87-7.25,8.46-19.95,10.56-29.23,3.4-6.51-5.02-11.44-12.04-17.38-17.85-7.54-7.39-15.39-14.48-23.11-21.69-2.21,1-4.43,1.99-6.64,2.99Z"/><path class="cls-2" d="M579.99,803.53c-2.06,6.05-2.62,11.51-5.42,15.31-19.23,26.11-38.92,51.87-58.48,77.73-12.51,16.53-24.93,33.12-37.6,49.52-16.26,21.03-32.49,42.09-49.16,62.79-22,27.32-44.42,54.31-66.68,81.41-2.12,2.58-4.14,5.41-6.76,7.39-7.9,5.98-17.11,8.98-25.25,2.05-8.7-7.4-6.07-16.45,.46-24.45,17.43-21.34,35.22-42.39,52.27-64.03,7.69-9.76,13.44-21.03,20.98-30.92,44.2-57.89,88.59-115.64,133.11-173.28,14.53-18.81,21.72-19.41,42.53-3.53Z"/><path class="cls-2" d="M769.33,1228.26c-14.64-16-18.22-30.16-21.38-44.72-2.46-11.32-6.54-22.28-9.1-33.58-6.77-29.89-13.42-59.81-19.53-89.84-12.08-59.34-23.87-118.74-35.51-178.18-2.4-12.28-4.08-24.75-5.22-37.21-1.06-11.68,6.85-21.86,17.22-23.78,8.9-1.64,17.62,5.4,20.45,17.6,4.69,20.22,9.31,40.49,13.09,60.9,7.42,40.11,14.12,80.34,21.34,120.49,4.86,27,11.22,53.78,14.82,80.94,3.26,24.67,3.53,49.72,5.45,74.58,.84,10.82,3.13,21.55,3.55,32.36,.2,5.06-2.46,10.23-5.18,20.45Z"/><path class="cls-5" d="M977.6,2.08c-1.79,9.53-2.99,19.23-5.54,28.55-2.25,8.23-6,16.04-11.15,29.37,16.96-6.15,28.04-10.17,44.23-16.04-4.98,8.45-6.38,13.14-9.51,15.75-15.95,13.3-33.06,25.28-48.29,39.32-8.34,7.68-15.3,17.79-20.22,28.08-22.68,47.36-44.67,95.05-66.44,142.84-29.02,63.72-57.73,127.58-86.3,191.51-8.16,18.27-15.18,37.06-23.11,55.44-1.75,4.06-5.16,7.41-12.64,9.56,1.68-10.95,1.62-22.54,5.35-32.74,18.64-50.98,37.16-102.05,57.89-152.19,18.13-43.87,38.66-86.78,59.05-129.67,13.22-27.81,27.85-54.97,42.35-82.16,6.14-11.51,8.65-22.82,6.12-35.96-4.99-25.92,1.16-50.88,8.41-78.82,15.34,17.1-3.8,38.45,12.37,53.56,15.18-10.47,20.06-27.59,27.61-42.54,4.91-9.72,7.45-20.72,20.03-23.68,0,0-.21-.16-.21-.16Z"/><path class="cls-5" d="M1189.6,943.03c9.26,37.01,28.88,70.18,30.73,113.27-7.03-5.05-11.53-6.53-12.66-9.36-8.94-22.35-15.96-45.53-26.03-67.33-14.11-30.55-26.05-61.02-60.52-78.97-52.26-27.21-101.08-61-151.5-91.76-7.79-4.75-16.58-7.86-24.48-12.47-7.61-4.45-14.67-9.85-20.96-16.8,15.83-3.72,29.03,2.97,41.35,9.44,46.89,24.63,93.39,50.02,139.74,75.67,24.73,13.69,48.4,29.35,73.48,42.32,9.73,5.03,22,6.77,33.19,7.06,34.24,.88,67.2,6.09,102.1,21.95-25.79,16.49-47.84-6.47-71.34,1.01,15.92,21.85,45.96,24.19,61.35,50.45-42.87-8.83-77.27-28.63-114.46-44.48Z"/><path class="cls-1" d="M609.2,98.98c.07-17.24,.38-34.48,.11-51.72-.15-9.4,1.7-16.36,15.97-17.01,2.82,21.51,5.57,42.5,9.06,69.16,7.33-8.69,10.97-12.54,14.08-16.77,15.3-20.84,30.04-42.11,45.94-62.48,4.73-6.06,12.57-9.69,21.19-16.06,4.3,15.07-2.62,24.09-5.99,33.69-12.87,36.73-38.11,66.27-58.34,98.66-6.81,10.9-8.36,20.71-7.15,32.9,1.96,19.83,2.77,39.86,2.37,59.77-.1,4.71-6.95,9.29-10.69,13.93-4-3.59-10.5-6.59-11.53-10.89-3.28-13.77-6.08-28-6.23-42.09-.33-29.8-16.24-51.1-34.17-72.52-16.47-19.67-31.05-40.96-45.73-62.05-1.92-2.76,.5-8.55,.91-12.94,3.79,.59,9.03-.2,11.14,2,11.47,11.99,22.08,24.81,33.17,37.17,6.34,7.06,13.04,13.8,19.57,20.68,2.11-1.14,4.23-2.29,6.34-3.43Z"/><path class="cls-5" d="M1478.9,435.15c2.14,15.26-9.1,19.28-16.39,24.01-27.8,18.06-56.27,35.1-84.8,52.01-7.7,4.56-14.96,8.11-10.08,19.09,31.17,2.24,62.3,4.48,94.24,6.77-1.14,15-9.18,15.35-17.88,15.49-23.23,.39-46.48,.63-69.65,2.09-4.64,.29-8.95,5.71-15.27,10.03,22.23,17.28,48.69,27.23,58.03,59.09-7.67-3.93-12.56-5.94-16.92-8.76-16.11-10.39-31.62-21.76-48.13-31.46-31.24-18.36-65.3-23.89-101.08-19.53-15.78,1.92-31.56,3.88-47.32,5.99-10.8,1.44-19.5-.77-25.41-14.27,21.41-4.4,41.16-9.45,61.23-12.32,22.72-3.25,45.82-3.9,68.55-7.11,6.74-.95,13.61-5.77,19.04-10.43,42.2-36.1,91.62-60.42,139.96-86.5,3.28-1.77,7.1-2.54,11.89-4.19Z"/><path class="cls-5" d="M1068.91,1222.68c-33.95,2.43-51.32-34.71-85.63-34.49-2.74,25.45,27.03,38.24,24.15,65.15-19.89-5.75-19.29-26.67-30.11-36.13-12.16-10.62-13.37-31.93-34.84-34.99-11.6,28.23-23.07,56.14-34.54,84.05-6.65-14.08-3.06-26.54,.86-38.26,6.87-20.56,16.02-40.36,23.16-60.85,1.88-5.41,1.85-13.16-.66-18.14-12.74-25.25-26.53-49.98-40.05-74.84-19.53-35.91-39.45-71.62-58.53-107.77-6.37-12.07-10.65-25.23-16.99-40.56,15.77,2.58,18.98,13.29,23.72,21.23,23.09,38.7,45.52,77.79,68.1,116.8,14.53,25.1,29.08,50.18,43.27,75.47,9.16,16.33,25.14,25.15,40.85,30.58,30.71,10.61,54.35,30.14,77.25,52.74Z"/><path class="cls-1" d="M475.65,44.89c1.45,4.14,4.41,8.39,4.13,12.41-2.63,38.04-4.92,76.14-9.3,113.99-1.67,14.44,1.72,25.49,8.64,37.61,13.2,23.11,25.16,46.98,36.49,71.07,3.18,6.76,2.37,15.39,3.41,23.36-15.03,4.1-19.01-5.38-23.22-12.99-12.48-22.56-24.81-45.23-36.39-68.25-10.38-20.63-23.69-36.38-46.24-45.92-26.37-11.15-44.47-33.59-63.67-56.15,13.25-10.8,21.14-2.71,29.92,2.93,8.89,5.71,18.47,10.33,31.41,17.44-1.54-11.72-2.49-19-3.63-27.69,21.47-.09,23.61,20.09,37.7,30.4,14.11-31.56,6.58-68.6,23.81-98.18,2.31-.01,4.62-.02,6.93-.04Z"/><path class="cls-2" d="M332.73,375.63c16.56-20.85,24.36-23.04,40.86-9.54,29.01,23.73,56.93,48.79,85.43,73.14,22.78,19.47,45.9,38.55,68.58,58.13,9.45,8.16,18.66,16.73,27.02,25.97,5.07,5.61,13.63,11.25,4.92,24.13-6.71-2.64-14.97-4.1-21.03-8.56-61.87-45.49-123.57-91.22-184.78-137.59-8.28-6.27-13.6-16.44-21-25.69Z"/><path class="cls-5" d="M169.59,487.91c-11.31-30.95-40.17-47.13-49.45-76.53,12.59-6.06,18.92,1.17,24.46,8.14,18.57,23.36,37.81,46.33,54.49,71.01,7.35,10.88,16.22,15.64,27.37,19.73,24.97,9.16,49.9,18.5,74.4,28.8,8.81,3.71,18.02,8.96,19.97,24.43-9.43-1.69-17.39-2.12-24.67-4.59-33.07-11.22-66.13-22.51-98.76-34.92-9.66-3.68-15.27-1.27-22.15,4.95-12.36,11.18-25.27,21.81-38.55,31.88-8.22,6.23-17.54,11.02-27.74,14.52,5.37-29.58,39.43-32.91,51.19-58.05-24.42-19.04-55.17-22.01-84.55-36.26,18.92-13.34,33.57-4.04,48.09-1.53,14.38,2.48,28.71,5.26,45.91,8.43Z"/><path class="cls-5" d="M1266.13,208.44c25.69,7.69,50.3-3.24,73.98,5.03-2.18,11.16-9.98,11.77-17.22,11.98-24.28,.73-48.62,2.09-72.83,.95-10.67-.51-18.1,2.96-26.19,8.24-18.13,11.82-9.05,3.86-27.7,14.82-6.71,3.94-14.61,7.38-25.65,1.12,5.69-5.32,9.86-10.31,15.01-13.85,23.42-16.1,19.57-12.49,43.55-27.73,7.1-4.51,8.27-9.34,7.56-16.85-1.27-13.5-1.91-27.1-2.01-40.66-.06-8.39,1.35-16.8,4.04-25.15,16.67,17.91,2.26,41.74,12.92,61.65,24.31-6.65,41.22-25.25,64.82-37.47-.52,18.83-13.72,23.86-22.42,32.1-8.62,8.17-17.41,16.16-27.85,25.83Z"/><path class="cls-2" d="M1017.3,470.95c-.4,10.97-4.64,20.55-15.52,25.91-11.95,5.89-24.56,10.51-36.16,17-43.57,24.35-86.82,49.27-130.24,73.89-7.26,4.12-14.55,8.29-22.2,11.58-7.54,3.24-15.24,2.95-19.46-5.44-3.87-7.7-1.9-14.8,5.31-19.8,14.37-9.95,28.7-19.99,43.4-29.45,17.4-11.2,34.92-22.28,52.85-32.6,31.67-18.24,63.49-36.23,95.66-53.55,10.12-5.45,24.12,1.77,26.34,12.45Z"/><path class="cls-2" d="M196.44,271.64c.52-16.69-25.25-29.97,1.56-43.83,5.07,3.31,11.02,7.5,17.26,11.18,5.91,3.49,12.12,6.45,19.9,10.54,6.44-20.15,.55-40.02,15.38-56.84,3.4,5.23,7.36,8.65,7.77,12.45,1.6,14.81,3.3,29.8,2.63,44.61-.74,16.29,2.86,28.63,17.03,38.63,11.39,8.04,21.11,18.74,30.36,29.32,3.04,3.47,4.79,12.01,2.64,15.04-2.5,3.52-10.31,5.53-15.14,4.62-7.08-1.34-14.99-4.37-20.05-9.26-20.01-19.39-43.9-23.42-70.61-23.81-15.27-.22-30.71-6.74-45.49-12.04-4.99-1.79-8.19-8.58-16.31-17.68,21.73-1.2,37.16-2.05,53.07-2.93Z"/><path class="cls-2" d="M646.45,407.82c-3.8-29.01-7.6-58.02-11.4-87.04-.54-4.14-1.44-8.27-1.6-12.43-.46-11.94,6.09-23.15,14.3-23.09,10.63,.08,16.27,6.94,18.88,16.82,10.03,37.94,16.8,76.03,16.51,115.75-.2,27.36,5.9,54.77,9.26,82.14,1.21,9.84,.75,18.56-11.27,21.53-12.38,3.05-19.37-1.62-21.65-16.75-3.85-25.62-6.78-51.38-10.1-77.09-.86-6.63-1.73-13.26-2.6-19.89-.11,.01-.23,.03-.34,.04Z"/><path class="cls-5" d="M247.98,901.93c-6.53,3.98-12.81,8.46-19.64,11.85-25.38,12.58-50.82,25.07-76.5,37.02-9.85,4.59-14.48,11.29-17.97,21.81-6.28,18.9-15.01,37.11-24.08,54.91-4.27,8.38-11.72,15.13-21.02,26.73-4.08-31.15,15.2-50.23,19.96-78.59-18.43,9.29-32.16,16.32-45.99,23.15-13.87,6.86-27.83,13.53-45.89,22.29,5.85-22.82,23.28-26,34.69-35.04,11.69-9.26,24.88-16.62,40.48-26.8-4.92-5.01-8.32-10.69-13.32-13.16-16.44-8.14-33.66-14.68-50.15-22.71-9.24-4.49-17.66-10.7-28.55-17.43,5.57-3.38,8.07-6.02,9.36-5.52,31.6,12.28,66.81,16.23,93.31,40.31,7.28,6.62,14.51,5.48,22.91,.98,19.79-10.6,39.79-20.95,60.3-30.07,18.69-8.3,37.16-18.8,58.83-16.01,1.09,2.09,2.18,4.19,3.27,6.28Z"/><path class="cls-1" d="M1179.71,310.55c-5.41,27.7-35.49,42.07-41.42,68.01,8.33,7.2,19.56,12.29,21.19,19.56,1.79,7.94-5.28,17.89-9.51,29.83,18.88,5.59,37.87,11.21,56.86,16.83-.12,2.17-.24,4.35-.35,6.52-6.71,1.29-13.63,4.32-20.09,3.54-17.27-2.1-35.14-3.66-51.27-9.54-16.17-5.89-28.97-1.74-42.39,5.2-2.14,1.11-3.49,3.69-5.59,4.95-11.17,6.74-21.92,6.4-27.2-.61-6.7-8.88-5.62-26.23,5.84-30.65,36.3-14.01,47.24-49.91,69.87-75.57,12.45-14.12,24.72-28.4,37.06-42.61,2.33,1.52,4.67,3.03,7,4.55Z"/><path class="cls-2" d="M933.26,901.11c3.94,2.53,12.11,5.64,17.26,11.43,30.41,34.2,60.15,69.01,90.01,103.7,2.7,3.14,4.56,6.99,7.01,10.37,5.49,7.55,3.2,14.11-2.43,20.24-6.58,7.16-14.22,8.27-22.48,3.23-2.81-1.71-5.52-3.91-7.57-6.46-31.24-38.63-62.67-77.1-93.33-116.18-9.94-12.66-5.66-24.98,11.53-26.33Z"/><path class="cls-5" d="M964.16,216.07c0,12.02,.02,19.8,.03,32.48,12.82-9.97,22.52-17.5,36.37-28.26-2.03,13.14-3.3,21.33-5.05,32.66,19.73-8.25,36.65-15.33,53.57-22.4,1.13,1.7,2.26,3.39,3.39,5.09-3.21,3.99-5.64,9.21-9.75,11.74-17.7,10.9-35.43,21.95-54.03,31.16-23.81,11.79-36.94,32.41-49.96,53.89-6.49,10.7-10.75,24.71-29,26.85,.2-5.65-.3-10.21,.69-14.42,.93-3.96,3.07-7.77,5.27-11.26,18.1-28.66,25.85-60.81,31.8-93.58,1.57-8.66,1.68-18.14,16.66-23.94Z"/><path class="cls-1" d="M874.94,672.28c4.44-1.08,9.06-3.59,13.28-3.03,48.49,6.4,96.93,13.24,145.37,20.08,4.08,.58,9.18,.83,11.76,3.34,3.64,3.54,7.94,9.52,7.2,13.58-.78,4.27-6.91,7.88-11.26,11-1.63,1.16-4.92,.53-7.31,.03-47.88-10.04-95.78-20.01-143.56-30.51-5.88-1.29-11.13-5.45-16.68-8.28,.4-2.07,.79-4.15,1.19-6.22Z"/><path class="cls-1" d="M482.8,694.86c-11.48,3.57-18.75,7.04-26.35,8-35.48,4.47-71.05,8.12-106.56,12.33-11.57,1.37-17.33-5-19.39-14.75-2.17-10.27,3.92-16.19,13.72-16.78,23.23-1.4,46.5-2.18,69.77-2.94,9.94-.32,19.91-.17,29.85,.13,12.04,.36,24.93-1.92,38.95,14.01Z"/><path class="cls-5" d="M421.48,1052.24c2.23,5.93,5.21,10.1,5.12,14.21-.44,20.42-8.24,41.03,2.18,61.12,.65,1.25,.21,3.34-.3,4.86-9.65,29.08-19.37,58.13-29.16,87.15-.17,.51-1.37,.68-5.39,2.52-2.42-5.07-7.42-10.49-7.01-15.46,4.19-50.4,5.85-101.36,27.1-148.66,.58-1.29,2.47-1.98,7.45-5.75Z"/><path class="cls-1" d="M1135.38,723.29c13.76-2.46,23.16-5.93,32.35-5.43,24.65,1.33,49.23,4.14,73.78,6.89,4.74,.53,11.04,2.18,13.39,5.55,3.32,4.77,5.1,11.75,4.6,17.54-.24,2.82-7.22,7.37-11,7.23-35.75-1.36-70.41-8.77-103.92-21.29-1.93-.72-3.12-3.43-9.2-10.49Z"/><path class="cls-1" d="M243.12,724.3c-38.04,19.72-77.55,34.44-120.71,36.93-4.92-12.19,.92-17.34,7.84-20.47,15.86-7.18,31.71-14.95,48.37-19.6,15.14-4.22,31.3-5.09,47.09-6.51,5.73-.51,11.7,1.67,17.57,2.63-.05,2.34-.1,4.68-.16,7.02Z"/><path class="cls-5" d="M612.22,468.68c-30.73-5.91-85.62-64.2-95.26-98.87,16.2,5.25,84.77,75.44,95.26,98.87Z"/><path class="cls-5" d="M813.91,762.71c33.43,24.94,59.08,53.94,83.13,88.17-20.06,6.15-28.82-7.7-38.04-16.02-37.01-33.4-46.92-49.66-45.1-72.15Z"/><path class="cls-5" d="M221.07,1081.32c2.88-7.49,3.39-14.64,7.21-17.84,25.99-21.76,54.84-38.35,89.77-47.56-7.66,21.38-62.79,58.45-96.98,65.39Z"/><path class="cls-5" d="M443.07,553.32c33.41,4.71,48.21,27.01,68.77,48.6-27.12-.66-54.87-20.75-68.77-48.6Z"/><path class="cls-5" d="M977.81,2.24c.26-.75,.53-1.5,.79-2.24-.33,.69-.67,1.39-1,2.08,0,0,.21,.16,.21,.16Z"/></g></svg>