<?xml version="1.0" encoding="utf-8"?>
<!-- Generator: Adobe Illustrator 25.0.0, SVG Export Plug-In . SVG Version: 6.00 Build 0)  -->
<svg version="1.1" id="图层_1" xmlns="http://www.w3.org/2000/svg" xmlns:xlink="http://www.w3.org/1999/xlink" x="0px" y="0px"
	 viewBox="0 0 200 200" style="enable-background:new 0 0 200 200;" xml:space="preserve">
<style type="text/css">
	.st0{fill:#3A82FB;}
</style>
<path class="st0" d="M170.3,32.8h-32v-9.2c0-2.8-2.2-5.1-5-5.1s-5,2.3-5,5.1l0,0v9.2H72.3v-9.2c0-2.8-2.2-5.1-5-5.1s-5,2.3-5,5.1
	l0,0v9.2H29.6c-5.6,0-10.1,4.6-10.1,10.2v128.3c0,5.6,4.5,10.2,10.1,10.2l0,0h140.7c5.6,0,10.1-4.6,10.1-10.2l0,0V43
	C180.4,37.4,175.9,32.8,170.3,32.8L170.3,32.8z M170.3,171.3H29.6V78c0.4,0.1,0.7,0.2,1.1,0.2h139.6V171.3z M170.3,68H30.7
	c-0.4,0-0.7,0.1-1.1,0.2V43h32.7v8.4c0,2.8,2.2,5.1,5,5.1s5-2.3,5-5.1V43h55.9v8.4c0,2.8,2.2,5.1,5,5.1s5-2.3,5-5.1V43h32V68z"/>
<path class="st0" d="M53.5,120.6l66.7,36c4,2.2,8.9,2.1,12.8-0.3l15.8-9.4c1.1-0.7,2.1-1.6,2.7-2.7c2.3-3.7,0.9-8.5-3-10.6l-4.1-2.3
	c-2.1-1.1-4.5-1.4-6.8-0.7l-10.1,3.1l-14.8-8.1l22.5-17.4c2.5-1.9,3.1-5.5,1.2-8.1c-0.5-0.7-1.2-1.3-2-1.7l-9.2-5.1
	c-2.5-1.4-5.5-1.4-8-0.2L84,109.8l-18-9.9c-6-3.3-13.7-1.3-17.2,4.4l-0.1,0.1C45.4,110.1,47.5,117.3,53.5,120.6L53.5,120.6z
	 M55.9,108.5L55.9,108.5c1.3-1.9,3.8-2.6,5.8-1.5l20.1,10.9l4.1,0.1l35.8-17.3l6.6,3.6l-25.1,19l0.5,6.5l21.9,11.8l3.4,0.3l11.9-3.6
	l3.8,2l-15.6,9.1c-1.3,0.8-3,0.8-4.3,0.1l-67.2-35.7C55.4,112.7,54.7,110.3,55.9,108.5L55.9,108.5z"/>
</svg>
