<svg id="图层_1" data-name="图层 1" xmlns="http://www.w3.org/2000/svg" viewBox="0 0 200 200"><defs><style>.cls-1{fill:#3a82fb;}</style></defs><path class="cls-1" d="M170,34H138.13V25a5,5,0,0,0-10,0h0v9H72.5V25a5,5,0,0,0-10,0h0v9H30A10,10,0,0,0,20,44V170a10,10,0,0,0,10,10H170a10,10,0,0,0,10-10h0V44a10,10,0,0,0-10-10Zm0,136H30V78.42a4.83,4.83,0,0,0,1.07.21H170Zm0-101.37H31.07a4.84,4.84,0,0,0-1.07.22V44H62.5v8.24a5,5,0,0,0,10,0V44h55.63v8.24a5,5,0,0,0,10,0V44H170Z"/><path class="cls-1" d="M53.8,120.22l66.35,35.38a13.18,13.18,0,0,0,12.77-.25l15.76-9.22a7.65,7.65,0,0,0,2.73-2.66,7.37,7.37,0,0,0-3-10.4l-4.08-2.21a8.79,8.79,0,0,0-6.72-.67l-10,3-14.73-8,22.41-17.06a5.69,5.69,0,0,0-.81-9.65l-9.13-5a8.78,8.78,0,0,0-8-.17L84.1,109.6,66.24,99.91a12.94,12.94,0,0,0-17.07,4.3l-.05.08a11.32,11.32,0,0,0,4.68,15.93Zm2.32-11.9v0a4.4,4.4,0,0,1,5.74-1.42l20,10.66,4,.08,35.59-17,6.56,3.5-25,18.67.54,6.37,21.76,11.6,3.39.33,11.87-3.53,3.76,2-15.55,8.93a4.5,4.5,0,0,1-4.29.08l-66.9-35a3.68,3.68,0,0,1-1.53-5.21Z"/></svg>