<svg t="1683469538257" class="icon" viewBox="0 0 1024 1024" version="1.1" xmlns="http://www.w3.org/2000/svg" p-id="1893" width="200" height="200"><path d="M870.4 174.2848h-163.1744V128a25.6 25.6 0 0 0-51.2 0v46.2848H371.2V128a25.6 25.6 0 0 0-51.2 0v46.2848H153.6a51.2 51.2 0 0 0-51.2 51.2V870.4a51.2 51.2 0 0 0 51.2 51.2h716.8a51.2 51.2 0 0 0 51.2-51.2V225.4848a51.2 51.2 0 0 0-51.2-51.2zM870.4 870.4H153.6V401.5104c1.8432 0.4096 3.5328 1.0752 5.4784 1.0752H870.4V870.4z m0-519.0144H159.0784c-1.9456 0-3.6352 0.7168-5.4784 1.1264V225.4848h166.4v42.1888a25.6 25.6 0 0 0 51.2 0v-42.1888h284.8256v42.1888a25.6 25.6 0 0 0 51.2 0v-42.1888H870.4v125.9008z" p-id="1894"></path><path d="M275.456 615.5264l339.712 181.1456c20.3776 10.8544 45.4656 10.3936 65.3824-1.28l80.6912-47.2064a39.5776 39.5776 0 0 0 13.9776-13.6192c11.4688-18.6368 4.6592-42.496-15.1552-53.248l-20.8896-11.3152a45.0048 45.0048 0 0 0-34.4064-3.4304l-51.2512 15.5136-75.4176-40.96 114.7392-87.3472a29.1328 29.1328 0 0 0-4.1472-49.408l-46.7456-25.3952a45.0048 45.0048 0 0 0-40.96-0.8704L430.592 561.152l-91.4432-49.6128c-30.6176-16.5888-69.7344-6.7584-87.3984 22.016l-0.256 0.4096c-17.3568 28.7232-6.6048 65.2288 23.9616 81.5616z m11.8784-60.928l0.0512-0.1024a22.528 22.528 0 0 1 29.3888-7.2704l102.4 54.5792 20.6336 0.4096 182.2208-87.1936 33.5872 17.92-127.8976 95.5904 2.7648 32.6144 111.4112 59.392 17.3568 1.6896 60.7744-18.0736 19.2512 10.2912-79.616 45.7216a23.04 23.04 0 0 1-21.9648 0.4096l-342.528-179.3024c-10.0352-5.376-13.6192-17.3056-7.8336-26.6752z" p-id="1895"></path></svg>