<?xml version="1.0" encoding="UTF-8"?><svg id="Layer_1" xmlns="http://www.w3.org/2000/svg" viewBox="0 0 1557.43 2449"><defs><style>.cls-1{fill:#231815;}</style></defs><path class="cls-1" d="M1308.43,2449c-75.04-388.14-102.59-682.04-94.85-905.9,65.66-79.18,115.77-179.83,158.73-290.35l120.01-143.24c143.59-202.57,16.11-323.19-61.94-458.76-4.48-106.64-52.97-151.36-123.88-164.53l-367.78,125.82c-55.91,67.1-59.07,140.82,48.39,228.41,162.77,67.21,242.33,41.11,282.61-29.04-200.16,36.86-325.84,3.55-331-143.24,43.99-43.15,194.54-67.75,288.42-120.01,91.98-28.93,139.99,16.75,152.92,121.95l112.27,236.15c14.95,44.98,10.19,93.48-23.23,147.11-96.64,88.76-171.01,195.94-218.73,325.19-71.32,98.88-154.59,182.44-311.65,197.44l187.76,7.74c20.17,158.72-330.36,170.34-561.35,135.5,26.31,34.3,69.28,61.22,145.18,73.56l42.59,383.27,46.46-375.52c217.11-15.59,375.9,56.7,389.07,348.42,30.55,149.15,64.1,282.73,120.01,300.03Z"/><path class="cls-1" d="M250.86,2449c58.86-92.59,108.47-251.85,121.94-671.56l153.88,119.04-124.85-235.17h174.2l-142.27-34.84c-235.98-202.37-343.37-425.74-354.21-664.87,3.45-152.63,95-179.09,200.33-185.82l-63.87-23.23c31.36-132.21,103.43-204.1,220.66-209.04l-40.65-17.42c-20.55-153.26,58.77-227.09,206.14-246.79l-55.16-17.42c6.51-162.54,118.77-234.41,226.46-200.33l124.85,116.14,177.11,249.69c52.49,76.72,46.35,144.37-136.71,184.67l-258.15-257.26c21.27,76.78,70.25,150.49,150.98,220.66,47.37,54.79,111.86,174.03,177.11,296.14,52.63,153.4-147.61,263.55-182.91,156.78-94.9-232.51-223.54-356.73-360.02-455.83,179.71,202.81,319.66,398.29,357.12,574.87,64.91,135.67-176.41,232.46-194.53,107.87-71.71-196.35-192.72-331.24-342.6-430.14,106.44,113.71,200.29,245.29,279.42,397.76,27.1,101.48-34.37,153.61-148.77,119.04L131.82,1016.75c-5.46,70.17,182.95,249.55,272.92,365.83,80.44,18.04,157.98,20.43,226.46-26.13,182.53,20.14,273.94-43.39,235.17-226.46,205.14-52.8,178.39-147.94,194.9-235.17-75.53-148.03-69.03-269.22,67.6-347.83,22.2-91.46-21.76-189.16-184.1-378.02-28.53-60.15-96.94-111.7-168.4-162.59-205.47-32.26-284.99,59.34-270.01,243.88-135.93,28.47-176.26,121.61-156.78,255.2-135.13,40.45-170.33,133.34-171.3,244.18-102.16,17.07-143.02,78.43-116.14,188.72-90,23.23-83.86,128.97,29.03,345.5,167.04,393.51,237.24,782.66,159.69,1165.14Z"/></svg>