<?xml version="1.0" encoding="utf-8"?>
<!-- Generator: Adobe Illustrator 26.5.0, SVG Export Plug-In . SVG Version: 6.00 Build 0)  -->
<svg version="1.1" id="Layer_1" xmlns="http://www.w3.org/2000/svg" xmlns:xlink="http://www.w3.org/1999/xlink" x="0px"
  y="0px" viewBox="0 0 2269.9 2449" style="enable-background:new 0 0 2269.9 2449;" xml:space="preserve">
  <style type="text/css">
    .st0 {
      fill: #231815;
    }
    .st1 {
      fill: #FFFFFF;
      stroke: #000000;
      stroke-width: 2;
      stroke-miterlimit: 10;
    }
    #delete1,
    #delete2,
    #between {
      opacity: 0;
    }
  </style>
  <path id="delete2" class="st0" d="M1044.3,861.4c124.8,39.1,190.1,11.4,225.4-50c-103.5,19.1-187.1,19.4-244.4-5.1" />
  <path class="st0" d="M1293.3,492.1c-20.2,0.5-41.8,5.9-74.5,15.7c-21.8,6.5-45,23.4-78.8,35.4c-56.3,20-130.5,44.6-189.7,64.9
	c-8.1,2.8-15.3,7.8-20.5,14.6c-12.2,15.7-29,43.1-29.3,79.3c-0.3,41.2,23.5,85.5,81.2,134c4.8,4,11,6.7,11.9,7.1
	c15.7,8.2,42.6,17.8,48.4,10.3c1.4-1.8,4.1-7.9-11.2-29.5c-2.3-5.7-4.6-11.5-6.9-17.2c-16.1-8.8-32.2-17.7-48.3-26.5
	c-37.7-55.8-33.5-89.9-28.2-106.6c18.4-58.1,106.6-83.2,259.3-126.6c28.1-8,51.6-13.9,68.1-17.9c20.6-7.6,27.8,4.4,48.2,17.2
	c13.1,8.2,24.8,19.9,32.3,39.3c10.4-11.4,24.7-19.7,35.1-31.1c-10.1-8.8-28.6-23.8-47.6-35.9
	C1322.5,505.5,1302.9,491.9,1293.3,492.1z" />
  <path class="st0" d="M1500.4,953.5c0.3,31.4-9.2,64.5-31.3,99.9c-96.6,88.8-171,195.9-218.7,325.2
	c-71.3,98.9-154.6,182.4-311.7,197.4l187.8,7.7c20.2,158.7-330.4,170.3-561.3,135.5c26.3,34.3,69.3,61.2,145.2,73.6l42.6,383.3
	l46.5-375.5c217.1-15.6,375.9,56.7,389.1,348.4c30.6,149.1,64.1,282.7,120,300h0c-75-388.1-102.6-682-94.8-905.9
	c65.7-79.2,115.8-179.8,158.7-290.3l120-143.2c57.4-81,71.5-148.9,62.7-209.9" />
  <path id="delete1" class="st0" d="M1500.4,953.5c-0.2-16.2-3-31.9-8.1-47.2l-112.3-236.2c-4.4-36.2-13-65.3-26.2-86.8l32.4-28.8
	c23.5,24.8,42.5,57,44.1,96.3c46.8,81.4,111.5,157.3,124.7,248.8" />
  <path class="st0" d="M250.9,2449c58.9-92.6,108.5-251.9,121.9-671.6l153.9,119l-124.9-235.2H576l-142.3-34.8
	c-236-202.4-343.4-425.7-354.2-664.9c3.4-152.6,95-179.1,200.3-185.8L216,752.5c31.4-132.2,103.4-204.1,220.7-209L396,526.1
	C375.5,372.8,454.8,299,602.2,279.3L547,261.9C553.5,99.3,665.8,27.5,773.5,61.6l124.8,116.1l177.1,249.7
	c52.5,76.7,46.3,144.4-136.7,184.7L680.6,354.8c21.3,76.8,70.2,150.5,151,220.7c47.4,54.8,111.9,174,177.1,296.1
	c52.6,153.4-147.6,263.6-182.9,156.8c-94.9-232.5-223.5-356.7-360-455.8c179.7,202.8,319.7,398.3,357.1,574.9
	c64.9,135.7-176.4,232.5-194.5,107.9C556.6,1058.9,435.6,924,285.7,825.1c106.4,113.7,200.3,245.3,279.4,397.8
	c27.1,101.5-34.4,153.6-148.8,119l-284.5-325.2c-5.5,70.2,183,249.6,272.9,365.8c80.4,18,158,20.4,226.5-26.1
	c182.5,20.1,273.9-43.4,235.2-226.5c205.1-52.8,178.4-147.9,194.9-235.2c-75.5-148-69-269.2,67.6-347.8
	c22.2-91.5-21.8-189.2-184.1-378C916.2,108.8,847.8,57.3,776.4,6.4c-205.5-32.3-285,59.3-270,243.9
	c-135.9,28.5-176.3,121.6-156.8,255.2c-135.1,40.5-170.3,133.3-171.3,244.2c-102.2,17.1-143,78.4-116.1,188.7
	c-90,23.2-83.9,129,29,345.5C258.2,1677.4,328.4,2066.5,250.9,2449L250.9,2449z" />
  <path class="st0" d="M1618.1,392.1" />
  <path id="good" class="st0" d="M1386.5,551.3c-21.9-37.6,10-32.2,53.2-37.2h0c2.4-0.3,4.8-0.7,7.2-1.3l103.4-24.9
	c4.7-1.1,9.3-2.8,13.6-5.1l114.2-59c2.5-1.3,4.9-2.7,7.1-4.3l87.3-61.7c10.2-7.2,22.4-11.1,34.9-11.1h68.6c15.5,0,30.4,6,41.6,16.6
	l29,27.6c17.4,16.6,23.4,41.9,15.1,64.5l-1,2.9c-3.6,9.8-9.7,18.5-17.6,25.3l-129.4,109.7c-2.3,1.9-182.7,216.1-184.7,218.3
	l-81.1,96.4l9.2,36.8c70.2-101.3,137.3-174.4,187.5-223.6c79.4-77.8,69-64.9,69-64.9c34.8-27.5,63.5-48.1,108.5-87.7
	c67.6-59.5,101.5-89.9,104.3-120.7c5.8-61.9-63.5-122-120.8-143.5c-15.7-5.9-54.6-17.9-100.9-9.2c-27.2,5.1-48.3,15.8-60.5,22
	c-19.8,10-32.8,19.6-53.2,34.9c-17.1,12.7-27.9,31-53.2,49.5c-9.3,6.8-38.4,27.4-80.7,44c-25.3,9.9-44.1,14-80.7,22
	c-36,7.8-63.6,11.6-86.2,14.7c-26.4,3.6-60.9,7.4-101.6,9.9L1386.5,551.3z" />
  <path id="between" class="st1" d="M1362.2,207.8c0.6-0.1,1-0.2,1.8-0.4c74.7-15.8,115.9-23.2,150.9-23
	c106,0.7,103.2,35.8,103.2,35.8l0,0c-64.6-20.4-133.8-21.7-199.1-3.5h0c-55.5,17.1-110.3,31.3-158,59.7l-5.9,3.5
	c-4.7-2.7-5.7-5-5.7-6.5c0-4.1,6.7-5.6,17.9-13.8c0.8-0.5,0.8-0.6,14.2-11.9C1291.2,239.5,1318.7,217.4,1362.2,207.8z" />
</svg>