<?xml version="1.0" encoding="utf-8"?>
<!-- Generator: Adobe Illustrator 25.0.0, SVG Export Plug-In . SVG Version: 6.00 Build 0)  -->
<svg version="1.1" id="Layer_1" xmlns="http://www.w3.org/2000/svg" xmlns:xlink="http://www.w3.org/1999/xlink" x="0px" y="0px"
	 viewBox="0 0 2269.9 2449" style="enable-background:new 0 0 2269.9 2449;" xml:space="preserve">
<style type="text/css">
	.st0{fill:#231815;}
	.st1{fill:#FFFFFF;stroke:#000000;stroke-width:2;stroke-miterlimit:10;}
</style>
<path id="delete2" class="st0" d="M1044.3,861.4c124.8,39.1,190.1,11.4,225.4-50c-103.5,19.1-187.1,19.4-244.4-5.1"/>
<path class="st0" d="M1075.8,591.9c36.7-12.5,81-25.1,132.6-39.7c28.1-8,51.6-13.9,68.1-17.9c5.9-2.2,10.7-2.7,15-2.2
	c6.9,0.9,15.4,3.2,33.2,19.4c7.9,7.2,18.3,17.7,29.1,31.8c6.3-5.7,12.6-11.3,18.9-17c4.5-4.1,9-8.1,13.5-12.2
	c-9.4-7.6-23.6-18.5-41.7-30.4c-24.2-15.8-36.2-23.7-49.5-26.5c-19.9-4.2-34,2.1-74.8,18.3c-55.7,22.3-13.1,3.6-82.2,31.8
	c-1.3,0.5-4,1.6-7.7,3.1"/>
<path class="st0" d="M1130.3,550.6c-22.4,9.1-83.1,33.7-116,45.7c-11.1,4.1-17.5,6.4-26.8,9c-15.2,4.3-20.4,4.4-30.4,8.3
	c0,0-13.6,5.3-25.5,14.4c-21.6,16.6-29.1,53.1-29.3,79.3c-0.3,41.2,23.5,85.5,81.2,134c4.2,3.5,9.4,6,11.3,6.8c0,0,0.3,0.1,0.6,0.3
	c14,6.2,42.8,18.8,49,12.2c1.5-1.6,4.5-7.3-10.5-31.4c-1.2-2.8-2.3-5.7-3.4-8.6c-1.9-4.9-3.5-9.6-5.1-14.2c-6.9-1.5-15-3.9-23.8-7.7
	c-9.8-4.2-17.9-9-24.1-13.2c-37.7-55.8-33.5-89.9-28.2-106.6c12.2-38.4,54.9-62.4,126.7-86.9"/>
<path class="st0" d="M1500.4,953.5c0.3,31.4-9.2,64.5-31.3,99.9c-96.6,88.8-171,195.9-218.7,325.2
	c-71.3,98.9-154.6,182.4-311.7,197.4l187.8,7.7c20.2,158.7-330.4,170.3-561.3,135.5c26.3,34.3,69.3,61.2,145.2,73.6l42.6,383.3
	l46.5-375.5c217.1-15.6,375.9,56.7,389.1,348.4c30.6,149.1,64.1,282.7,120,300l0,0c-75-388.1-102.6-682-94.8-905.9
	c65.7-79.2,115.8-179.8,158.7-290.3l120-143.2c57.4-81,71.5-148.9,62.7-209.9"/>
<path id="delete1" class="st0" d="M1500.4,953.5c-0.2-16.2-3-31.9-8.1-47.2L1380,670.1c-4.4-36.2-13-65.3-26.2-86.8l32.4-29.1
	c23.5,24.8,42.5,57.3,44.1,96.6c46.8,81.4,111.5,157.3,124.7,248.8"/>
<path class="st0" d="M252.3,2454.3c58-91.1,106.9-246.9,121.2-651.9c0.3-8.2,9.8-12.7,16.3-7.6L491,1873c8.6,6.7,20.2-3.1,15.1-12.7
	l-95-178.9c-3.6-6.7,1.3-14.9,8.9-14.9h73.5c12,0,14-17.1,2.4-19.9l-58.4-14.3c-1.6-0.4-3-1.1-4.2-2.2
	C198.7,1428.3,91.8,1205.6,80.9,967.2c0-0.3,0-0.5,0-0.8c3-130.7,70.9-168.7,156.6-181.1c10.4-1.5,11.8-15.9,2-19.5l-13.6-4.9
	c-4.9-1.8-7.6-7-6.3-12c28.8-112.1,88.1-178.9,180.9-196c9.9-1.8,11.5-15.3,2.2-19.3l0,0c-3.3-1.4-5.6-4.5-6.1-8.1
	c-16-135,47.1-206.9,166.8-233.9c10.1-2.3,10.6-16.4,0.8-19.5l-8.4-2.6c-4.4-1.4-7.3-5.6-7.1-10.2c9.7-155.9,118.6-225,223.9-193.1
	c1.5,0.4,2.8,1.2,3.9,2.3L899,182.3c0.5,0.5,1,1,1.4,1.6l176.5,248.9c52,75.9,46.4,143-131.2,183.5c-3.4,0.8-6.9-0.2-9.4-2.7
	L713,391c-7.8-7.8-20.7,0.8-16.5,11c25.7,61.6,70.2,121.1,135.9,178.3c0.4,0.3,0.7,0.7,1,1c47.3,54.9,111.4,173.4,176.2,294.8
	c0.3,0.5,0.5,1,0.7,1.6c51.6,152.8-147.6,262.4-183.1,156.3c-0.1-0.2-0.1-0.4-0.2-0.5c-75.6-185.2-172.6-301.6-278-391.4
	c-9.4-8-22.2,4.7-14.3,14.2c146.2,174.3,256.4,342,289.2,495.5c0.2,0.7,0.4,1.4,0.7,2.1c63,134.8-175.6,230.7-194.8,107.9
	c-0.1-0.7-0.3-1.3-0.5-1.9C570.2,1098,477.5,978.1,362.9,885.6c-9.5-7.7-22,5-14.1,14.3c81.1,96.7,153.9,205.3,217.2,327.2
	c0.4,0.7,0.6,1.4,0.8,2.1c26.1,99.9-34.1,151.5-146.3,118.7c-1.8-0.5-3.5-1.6-4.7-3l-253.1-289.3c-7.8-8.9-22,0.6-16.6,11.2
	c43,84.1,182.8,221.9,257.9,318.1c1.5,1.9,3.5,3.2,5.8,3.7c77.9,17,153.2,18.9,219.9-24.9c2-1.3,4.3-1.9,6.7-1.6
	c177,18.5,266.9-42.9,233.4-217.7c-1-5.2,2.2-10.2,7.3-11.6c192.7-52.6,170.2-144.4,185.2-229.4c0.4-2.2,0.1-4.4-0.9-6.4
	c-73.2-145.3-66.7-264.5,65.5-342.6c2.4-1.4,4.1-3.8,4.7-6.6c19.7-90.1-25.3-187.5-184.3-372.6c-0.6-0.7-1-1.4-1.4-2.1
	C917,114,850,63.2,779.8,13.1c-1.3-0.9-2.8-1.5-4.4-1.8c-200.5-30.7-280,57.5-268.3,235.6c0.3,4.9-2.9,9.4-7.7,10.6
	C373,287.4,333.6,376.1,349.9,502.4c0.6,4.8-2.3,9.4-6.9,10.9C217.8,554,182.5,641.8,179.9,746.8c-0.1,4.7-3.5,8.8-8.1,9.7
	C78.2,774.8,39.6,832.9,61.5,934.7c1.1,5-1.8,10-6.7,11.7c-80.7,27.8-71.4,133.5,37.5,342.5c0.1,0.2,0.2,0.5,0.3,0.7
	C259.7,1683,329.8,2071.9,252.3,2454.3L252.3,2454.3z"/>
<path class="st0" d="M1618.1,392.1"/>
<path id="good" class="st0" d="M1330.4,514.6c12.4-3.7,27.1-7.2,43.8-9.5c20.5-2.8,38.8-2.9,53.8-2l19.4-1.7c2.4-0.3,18-2,20.4-2.6
	l89.5-16.2c4.7-1.1,9.3-2.8,13.6-5.1l114.2-59c2.5-1.3,4.9-2.7,7.1-4.3l87.3-61.7c10.2-7.2,22.4-11.1,34.9-11.1h68.6
	c15.5,0,30.4,6,41.6,16.6l29,27.6c17.4,16.6,23.4,41.9,15.1,64.5l-1,2.9c-3.6,9.8-9.7,18.5-17.6,25.3l-129.4,109.7
	c-2.3,1.9-182.7,216.1-184.7,218.3l-81.1,96.4c-2.1,31.6-4.3,63.3-6.4,94.9c52-85,136.7-216.6,203.1-281.7
	c13.2-13,69.2-65.9,69.4-65.7c0.1,0.1-0.4,0.8-0.4,0.8c34.8-27.5,63.5-48.1,108.5-87.7c67.6-59.5,101.5-89.9,104.3-120.7
	c5.8-61.9-63.5-122-120.8-143.5c-15.7-5.9-54.6-17.9-100.9-9.2c-27.2,5.1-48.3,15.8-60.5,22c-19.8,10-32.8,19.6-53.2,34.9
	c-17.1,12.7-27.9,31-53.2,49.5c-9.3,6.8-38.4,27.4-80.7,44c-25.3,9.9-44.1,14-80.7,22c-43.1,9.4-38.8,4.9-86.2,14.7
	c-34.7,7.2-52.8,12.7-88.2,16.8c-14.8,1.7-26.9,2.5-34.9,2.9C1292.9,502.8,1311.7,508.7,1330.4,514.6z"/>
<path id="between" class="st1" d="M1362.2,207.8c0.6-0.1,1-0.2,1.8-0.4c74.7-15.8,115.9-23.2,150.9-23
	c106,0.7,103.2,35.8,103.2,35.8l0,0c-64.6-20.4-133.8-21.7-199.1-3.5l0,0c-55.5,17.1-110.3,31.3-158,59.7l-5.9,3.5
	c-4.7-2.7-5.7-5-5.7-6.5c0-4.1,6.7-5.6,17.9-13.8c0.8-0.5,0.8-0.6,14.2-11.9C1291.2,239.5,1318.7,217.4,1362.2,207.8z"/>
</svg>
