<?xml version="1.0" encoding="utf-8"?>
<!-- Generator: Adobe Illustrator 26.5.0, SVG Export Plug-In . SVG Version: 6.00 Build 0)  -->
<svg version="1.1" id="hand" xmlns="http://www.w3.org/2000/svg" xmlns:xlink="http://www.w3.org/1999/xlink" x="0px" y="0px"
	 viewBox="0 0 1557.6 2449" style="enable-background:new 0 0 1557.6 2449;" xml:space="preserve">
<style type="text/css">
	.st0{fill:#231815;}
</style>
<path class="st0" d="M1497.8,983.2c-4.2,22.4-13.5,45.8-28.7,70.2c-96.6,88.8-171,195.9-218.7,325.2
	c-71.3,98.9-154.6,182.4-311.7,197.4l187.8,7.7c20.2,158.7-330.4,170.3-561.3,135.5c26.3,34.3,69.3,61.2,145.2,73.6l42.6,383.3
	l46.5-375.5c217.1-15.6,375.9,56.7,389.1,348.4c30.6,149.1,64.1,282.7,120,300l0,0c-75-388.1-102.6-682-94.8-905.9
	c65.7-79.2,115.8-179.8,158.7-290.3l120-143.2c53.4-75.4,69.3-139.4,64.2-197.1"/>
<path id="delete2" class="st0" d="M1265.1,540.2c67.5-6.1,104,40.3,115,129.9l112.3,236.2c8.1,24.5,10.4,50.1,5.4,76.9l58.8-70.8
	c-8.7-97.3-77.1-176.5-126.1-261.6c-3.2-76.1-28.8-120.7-69-144.7"/>
<path class="st0" d="M1361.4,506c-16.1-9.7-34.6-16-54.9-19.8L1128.9,547l-30.5,16.9c-17.7,9.8-32.5,23.9-43.2,41l-7.7,12.3
	c58.9-19.7,127.9-40.2,179.6-69c13.6-4.3,26.2-6.9,37.9-8"/>
<path id="delete1" class="st0" d="M1128.9,547l-190.2,65c-55.9,67.1-59.1,140.8,48.4,228.4c162.8,67.2,242.3,41.1,282.6-29
	c-200.2,36.9-325.8,3.5-331-143.2c19.7-19.4,60.9-35,108.8-51"/>
<path class="st0" d="M250.9,2449c58.9-92.6,108.5-251.9,121.9-671.6l153.9,119l-124.9-235.2H576l-142.3-34.8
	C197.7,1424,90.3,1200.7,79.5,961.5c3.4-152.6,95-179.1,200.3-185.8L216,752.5c31.4-132.2,103.4-204.1,220.7-209L396,526.1
	C375.5,372.8,454.8,299,602.2,279.3L547,261.9C553.5,99.3,665.8,27.5,773.5,61.6l124.8,116.1l177.1,249.7
	c52.5,76.7,46.3,144.4-136.7,184.7L680.6,354.8c21.3,76.8,70.2,150.5,151,220.7c47.4,54.8,111.9,174,177.1,296.1
	c52.6,153.4-147.6,263.6-182.9,156.8c-94.9-232.5-223.5-356.7-360-455.8c179.7,202.8,319.7,398.3,357.1,574.9
	c64.9,135.7-176.4,232.5-194.5,107.9C556.6,1058.9,435.6,924,285.7,825.1c106.4,113.7,200.3,245.3,279.4,397.8
	c27.1,101.5-34.4,153.6-148.8,119l-284.5-325.2c-5.5,70.2,183,249.6,272.9,365.8c80.4,18,158,20.4,226.5-26.1
	c182.5,20.1,273.9-43.4,235.2-226.5c205.1-52.8,178.4-147.9,194.9-235.2c-75.5-148-69-269.2,67.6-347.8
	c22.2-91.5-21.8-189.2-184.1-378c-28.6-60.1-97-111.6-168.4-162.5c-205.5-32.3-285,59.3-270,243.9
	c-135.9,28.5-176.3,121.6-156.8,255.2C214.5,546,179.3,638.8,178.3,749.7c-102.2,17.1-143,78.4-116.1,188.7
	c-90,23.2-83.9,129,29,345.5C258.2,1677.4,328.4,2066.5,250.9,2449L250.9,2449z"/>
<path class="st0" d="M1000.3,599.9"/>
</svg>
