<?xml version="1.0" encoding="utf-8"?>
<!-- Generator: Adobe Illustrator 26.5.0, SVG Export Plug-In . SVG Version: 6.00 Build 0)  -->
<svg version="1.1" id="hand" xmlns="http://www.w3.org/2000/svg" xmlns:xlink="http://www.w3.org/1999/xlink" x="0px" y="0px"
	 viewBox="0 0 2280.9 2449" style="enable-background:new 0 0 2280.9 2449;" xml:space="preserve">
<style type="text/css">
	.st0{fill:#231815;}
</style>
<path class="st0" d="M1497.8,983.2c-4.2,22.4-13.5,45.8-28.7,70.2c-96.6,88.8-171,195.9-218.7,325.2
	c-71.3,98.9-154.6,182.4-311.7,197.4l187.8,7.7c20.2,158.7-330.4,170.3-561.3,135.5c26.3,34.3,69.3,61.2,145.2,73.6l42.6,383.3
	l46.5-375.5c217.1-15.6,375.9,56.7,389.1,348.4c30.6,149.1,64.1,282.7,120,300l0,0c-75-388.1-102.6-682-94.8-905.9
	c65.7-79.2,115.8-179.8,158.7-290.3l120-143.2c53.4-75.4,69.3-139.4,64.2-197.1"/>
<path class="st0" d="M1361.4,506c-16.1-9.7-34.6-16-54.9-19.8L1128.9,547l-30.5,16.9c-17.7,9.8-32.5,23.9-43.2,41l-7.7,12.3
	c58.9-19.7,127.9-40.2,179.6-69c13.6-4.3,26.2-6.9,37.9-8"/>
<path class="st0" d="M250.9,2449c58.9-92.6,108.5-251.9,121.9-671.6l153.9,119l-124.9-235.2H576l-142.3-34.8
	C197.7,1424,90.3,1200.7,79.5,961.5c3.4-152.6,95-179.1,200.3-185.8L216,752.5c31.4-132.2,103.4-204.1,220.7-209L396,526.1
	C375.5,372.8,454.8,299,602.2,279.3L547,261.9C553.5,99.3,665.8,27.5,773.5,61.6l124.8,116.1l177.1,249.7
	c52.5,76.7,46.3,144.4-136.7,184.7L680.6,354.8c21.3,76.8,70.2,150.5,151,220.7c47.4,54.8,111.9,174,177.1,296.1
	c52.6,153.4-147.6,263.6-182.9,156.8c-94.9-232.5-223.5-356.7-360-455.8c179.7,202.8,319.7,398.3,357.1,574.9
	c64.9,135.7-176.4,232.5-194.5,107.9C556.6,1058.9,435.6,924,285.7,825.1c106.4,113.7,200.3,245.3,279.4,397.8
	c27.1,101.5-34.4,153.6-148.8,119l-284.5-325.2c-5.5,70.2,183,249.6,272.9,365.8c80.4,18,158,20.4,226.5-26.1
	c182.5,20.1,273.9-43.4,235.2-226.5c205.1-52.8,178.4-147.9,194.9-235.2c-75.5-148-69-269.2,67.6-347.8
	c22.2-91.5-21.8-189.2-184.1-378c-28.6-60.1-97-111.6-168.4-162.5c-205.5-32.3-285,59.3-270,243.9
	c-135.9,28.5-176.3,121.6-156.8,255.2C214.5,546,179.3,638.8,178.3,749.7c-102.2,17.1-143,78.4-116.1,188.7
	c-90,23.2-83.9,129,29,345.5C258.2,1677.4,328.4,2066.5,250.9,2449L250.9,2449z"/>
<path id="good" class="st0" d="M1361.4,506c15.4-1.1,31.6-2.7,48.5-4.9c16.1-2.1,31.4-4.6,45.9-7.3c8.4-1.5,16.8-2.9,25.2-4.4
	c2.4-0.3,18-2,20.4-2.6l89.5-16.2c4.7-1.1,9.3-2.8,13.6-5.1l114.2-59c2.5-1.3,4.9-2.7,7.1-4.3l87.3-61.7
	c10.2-7.2,22.4-11.1,34.9-11.1h68.6c15.5,0,30.4,6,41.6,16.6l29,27.6c17.4,16.6,23.4,41.9,15.1,64.5l-1,2.9
	c-3.6,9.8-9.7,18.5-17.6,25.3L1854.3,576c-2.3,1.9-182.7,216.1-184.7,218.3c-37.7,39.4-75.4,78.7-113.1,118.1
	c0.8,9,1.1,18.8,0.7,29.3c-1.1,29-7.3,53.5-13.9,72c67.8-96.4,175.4-244.7,241.9-309.8c13.7-13.4,69.2-65.9,69.4-65.7
	c0.1,0.1-0.4,0.8-0.4,0.8c34.8-27.5,63.5-48.1,108.5-87.7c67.6-59.5,101.5-89.9,104.3-120.7c5.8-61.9-63.5-122-120.8-143.5
	c-15.7-5.9-54.6-17.9-100.9-9.2c-27.2,5.1-48.3,15.8-60.5,22c-19.8,10-32.8,19.6-53.2,34.9c-17.1,12.7-27.9,31-53.2,49.5
	c-9.3,6.8-38.4,27.4-80.7,44c-25.3,9.9-44.1,14-80.7,22c-43.1,9.4-38.8,4.9-86.2,14.7c-44.2,9.1-66.3,13.5-88.2,16.8
	c-7.8,1.2-20.4,2.9-36.1,4.4c8.8,2.3,18.3,5.1,28.4,8.8C1344.6,498.5,1353.4,502.3,1361.4,506z"/>
<path class="st0" d="M1000.3,599.9"/>
</svg>
