<?xml version="1.0" encoding="UTF-8"?><svg id="Layer_1" xmlns="http://www.w3.org/2000/svg" xmlns:xlink="http://www.w3.org/1999/xlink" viewBox="0 0 4799.09 2166.53"><defs><style>.cls-1{fill:url(#_未命名的渐变_9);}.cls-2{fill:#f1e0b1;}.cls-3{fill:#efdba7;}.cls-4{fill:#a68c72;}.cls-5{fill:#f3e4bc;}</style><radialGradient id="_未命名的渐变_9" cx="2061.18" cy="1375.02" fx="2061.18" fy="1375.02" r="769.07" gradientTransform="translate(-5555.41 -4597.86) scale(3.9 4.08)" gradientUnits="userSpaceOnUse"><stop offset="0" stop-color="#efdba7"/><stop offset=".07" stop-color="#cebd90"/><stop offset=".21" stop-color="#988b6a"/><stop offset=".35" stop-color="#696049"/><stop offset=".48" stop-color="#433d2f"/><stop offset=".62" stop-color="#25221a"/><stop offset=".75" stop-color="#100f0b"/><stop offset=".88" stop-color="#040302"/><stop offset="1" stop-color="#000"/></radialGradient></defs><ellipse class="cls-1" cx="2475.54" cy="1015.47" rx="2996.52" ry="2863.19"/><g><path class="cls-4" d="M2122.64,2166.48c-8.33,.71-15.85-5.8-17.72-12.85-1.92-7.26,.52-14.79,2.94-21.95,68.23-201.66,127.33-405.39,194.1-607.34,7.69-23.27,16.7-46.31,23.58-69.76,22.46-70.53,45.46-141,65.36-212.1,7.25-25.84,14.3-51.76,23.83-77.08,6.38-16.97,11.61-33.93,16.01-51.21,.27-1.09,.78-2.13,1.25-3.17,4.64-10.47,13.14-16.18,21.02-14.16,8.54,2.19,12.45,9.23,9.44,21.16-4.23,16.8-9.56,33.4-14.77,50.01-63.41,202.05-130.27,403.28-195.99,604.79-42.79,131.18-85.49,262.39-128.28,393.58-.26,.03-.51,.06-.76,.08h0Z"/><path class="cls-3" d="M2497.12,1024.02c-.75,11.37-1.94,22.74-2.07,34.11-.08,7.36-3.76,12.24-10.88,16.34-9.13-2.8-14.17-6.72-12.56-16.35,1.34-7.98-.65-16.36-1.28-26.32-4.45,2.04-8.3,3.25-11.35,5.32-4.24,2.87-7.72,6.54-11.84,9.56-8.73,6.39-13.88,6.8-19.76,1.94-5.67-4.69-5.34-9.2,1.99-17.08,3.7-3.98,8.27-7.36,12.16-11.22,1.58-1.57,2.37-3.7,3.79-5.99-10.91-5.23-24.59,5.2-32.87-6.73,2.52-15.49,25.04-5.78,31.27-16.91-4.87-7.83-4.34-14.63,1.62-20.39,8.89,3.35,18.18,6.85,28.91,10.89,1.34-7.91,2.53-14.95,3.81-22.55,6.49-.72,12.26-1.36,19.46-2.17,1.91,7.57,3.79,15.07,6.21,24.62,4.77-2.29,8.15-4.02,11.62-5.58,4.75-2.13,9.42-5.36,14.41-5.83,4.11-.38,9.71,1.67,12.73,4.26,3.88,3.34,4.85,8.39,.39,12.6-1.8,1.7-4.2,2.95-8.81,6.11,14.85,3.89,25.8,6.77,39.69,10.41-14.8,7.17-29.41,3.74-43.2,9.31,5.19,6.05,9.35,11.86,14.63,16.8,4.71,4.41,6.94,8.25,1.86,13.29-4.74,4.71-13.05,5.88-19.12,1.89-4.26-2.8-7.48-6.71-11.37-9.94-4.93-4.12-10.06-8.06-15.11-12.08-1.45,.56-2.9,1.11-4.34,1.67h0Z"/><path class="cls-3" d="M2411.13,1077.64c-1.35,3.37-1.71,6.41-3.54,8.53-12.58,14.54-25.45,28.89-38.24,43.29-8.18,9.21-16.3,18.45-24.59,27.58-10.63,11.71-21.25,23.44-32.15,34.97-14.39,15.22-29.05,30.25-43.61,45.34-1.39,1.44-2.71,3.01-4.42,4.12-5.17,3.33-11.19,5-16.51,1.14-5.69-4.12-3.97-9.16,.3-13.62,11.4-11.89,23.03-23.61,34.18-35.66,5.03-5.44,8.79-11.71,13.72-17.22,28.91-32.24,57.93-64.41,87.05-96.51,9.5-10.48,14.2-10.81,27.81-1.97h0Z"/><path class="cls-3" d="M2534.95,1314.21c-9.57-8.91-11.92-16.8-13.98-24.91-1.61-6.3-4.28-12.41-5.95-18.7-4.43-16.65-8.78-33.31-12.77-50.04-7.9-33.05-15.61-66.14-23.22-99.24-1.57-6.84-2.67-13.79-3.41-20.73-.69-6.51,4.48-12.18,11.26-13.24,5.82-.91,11.52,3.01,13.37,9.8,3.07,11.26,6.09,22.55,8.56,33.92,4.85,22.34,9.23,44.75,13.96,67.11,3.18,15.04,7.34,29.95,9.69,45.08,2.13,13.74,2.31,27.69,3.56,41.54,.55,6.03,2.05,12,2.32,18.02,.13,2.82-1.61,5.7-3.39,11.39h0Z"/><path class="cls-5" d="M2671.15,631.26c-1.17,5.31-1.96,10.71-3.62,15.9-1.47,4.58-3.92,8.93-7.29,16.36,11.09-3.43,18.34-5.66,28.92-8.93-3.26,4.71-4.17,7.32-6.22,8.77-10.43,7.41-21.62,14.08-31.58,21.9-5.45,4.28-10.01,9.91-13.22,15.64-14.83,26.38-29.21,52.94-43.45,79.56-18.98,35.49-37.75,71.06-56.44,106.67-5.34,10.18-9.93,20.64-15.11,30.88-1.14,2.26-3.37,4.13-8.27,5.32,1.1-6.1,1.06-12.55,3.5-18.24,12.19-28.39,24.3-56.84,37.86-84.77,11.86-24.43,25.28-48.33,38.62-72.22,8.65-15.49,18.21-30.62,27.7-45.76,4.02-6.41,5.66-12.71,4-20.03-3.26-14.44,.76-28.34,5.5-43.9,10.03,9.52-2.49,21.42,8.09,29.83,9.93-5.83,13.12-15.37,18.06-23.69,3.21-5.41,4.87-11.54,13.1-13.19l-.14-.09h0Z"/><path class="cls-5" d="M2809.79,1155.34c6.06,20.61,18.89,39.09,20.1,63.09-4.6-2.81-7.54-3.64-8.28-5.21-5.85-12.45-10.44-25.36-17.02-37.5-9.23-17.02-17.04-33.99-39.58-43.98-34.18-15.16-66.1-33.98-99.08-51.11-5.09-2.65-10.84-4.38-16.01-6.95-4.98-2.48-9.59-5.49-13.71-9.36,10.35-2.07,18.98,1.65,27.04,5.26,30.66,13.72,61.07,27.86,91.39,42.15,16.17,7.62,31.65,16.35,48.05,23.57,6.36,2.8,14.39,3.77,21.71,3.93,22.39,.49,43.95,3.39,66.77,12.23-16.87,9.18-31.29-3.6-46.65,.56,10.41,12.17,30.06,13.47,40.12,28.1-28.04-4.92-50.53-15.95-74.85-24.77h0Z"/><path class="cls-2" d="M2430.23,685.23c.05-9.6,.25-19.2,.07-28.81-.1-5.24,1.11-9.11,10.44-9.47,1.84,11.98,3.64,23.67,5.92,38.52,4.79-4.84,7.17-6.98,9.21-9.34,10.01-11.61,19.65-23.45,30.04-34.8,3.09-3.38,8.22-5.4,13.86-8.95,2.81,8.39-1.71,13.42-3.92,18.76-8.42,20.46-24.92,36.91-38.15,54.95-4.45,6.07-5.47,11.53-4.68,18.32,1.28,11.04,1.81,22.2,1.55,33.29-.07,2.62-4.55,5.17-6.99,7.76-2.62-2-6.87-3.67-7.54-6.07-2.15-7.67-3.98-15.6-4.07-23.44-.22-16.6-10.62-28.46-22.35-40.39-10.77-10.96-20.31-22.81-29.91-34.56-1.26-1.54,.33-4.76,.6-7.21,2.48,.33,5.91-.11,7.29,1.11,7.5,6.68,14.44,13.82,21.69,20.7,4.15,3.93,8.53,7.69,12.8,11.52,1.38-.63,2.77-1.28,4.15-1.91h-.01Z"/><path class="cls-5" d="M2998.98,872.46c1.4,8.5-5.95,10.74-10.72,13.37-18.18,10.06-36.8,19.55-55.46,28.97-5.04,2.54-9.78,4.52-6.59,10.63,20.38,1.25,40.74,2.5,61.63,3.77-.75,8.35-6,8.55-11.69,8.63-15.19,.22-30.4,.35-45.55,1.16-3.03,.16-5.85,3.18-9.99,5.59,14.54,9.62,31.84,15.17,37.95,32.91-5.02-2.19-8.21-3.31-11.07-4.88-10.54-5.79-20.68-12.12-31.48-17.52-20.43-10.23-42.7-13.31-66.1-10.88-10.32,1.07-20.64,2.16-30.95,3.34-7.06,.8-12.75-.43-16.62-7.95,14-2.45,26.92-5.26,40.04-6.86,14.86-1.81,29.96-2.17,44.83-3.96,4.41-.53,8.9-3.21,12.45-5.81,27.6-20.11,59.92-33.65,91.53-48.18,2.15-.99,4.64-1.41,7.78-2.33h0Z"/><path class="cls-5" d="M2730.86,1311.1c-22.2,1.35-33.56-19.33-56-19.21-1.79,14.17,17.68,21.3,15.79,36.29-13.01-3.2-12.62-14.85-19.69-20.12-7.95-5.92-8.74-17.78-22.78-19.49-7.59,15.72-15.09,31.27-22.59,46.81-4.35-7.84-2-14.78,.56-21.31,4.49-11.45,10.48-22.48,15.15-33.89,1.23-3.01,1.21-7.33-.43-10.1-8.33-14.06-17.35-27.84-26.19-41.68-12.77-20-25.8-39.89-38.28-60.03-4.17-6.72-6.96-14.05-11.11-22.59,10.31,1.44,12.41,7.4,15.51,11.82,15.1,21.55,29.77,43.33,44.54,65.05,9.5,13.98,19.02,27.95,28.3,42.03,5.99,9.1,16.44,14.01,26.71,17.03,20.08,5.91,35.54,16.79,50.52,29.37h0Z"/><path class="cls-2" d="M2342.89,655.1c.95,2.31,2.88,4.67,2.7,6.91-1.72,21.19-3.22,42.41-6.08,63.49-1.09,8.04,1.12,14.2,5.65,20.95,8.63,12.87,16.45,26.17,23.86,39.58,2.08,3.77,1.55,8.57,2.23,13.01-9.83,2.28-12.43-3-15.19-7.24-8.16-12.57-16.22-25.19-23.8-38.01-6.79-11.49-15.49-20.26-30.24-25.58-17.25-6.21-29.08-18.71-41.64-31.27,8.67-6.02,13.82-1.51,19.57,1.63,5.81,3.18,12.08,5.75,20.54,9.71-1.01-6.53-1.63-10.58-2.37-15.42,14.04-.05,15.44,11.19,24.65,16.93,9.23-17.58,4.3-38.21,15.57-54.68,1.51,0,3.02-.01,4.53-.02h0Z"/><path class="cls-3" d="M2249.43,839.31c10.83-11.61,15.93-12.83,26.72-5.31,18.97,13.22,37.23,27.17,55.87,40.74,14.9,10.84,30.02,21.47,44.85,32.38,6.18,4.54,12.2,9.32,17.67,14.46,3.32,3.12,8.91,6.27,3.22,13.44-4.39-1.47-9.79-2.28-13.75-4.77-40.46-25.34-80.81-50.81-120.84-76.63-5.41-3.49-8.89-9.16-13.73-14.31h0Z"/><path class="cls-5" d="M2142.74,901.85c-7.4-17.24-26.27-26.25-32.34-42.63,8.23-3.38,12.37,.65,16,4.53,12.14,13.01,24.73,25.8,35.63,39.55,4.81,6.06,10.61,8.71,17.9,10.99,16.33,5.1,32.63,10.3,48.66,16.04,5.76,2.07,11.78,4.99,13.06,13.61-6.17-.94-11.37-1.18-16.13-2.56-21.63-6.25-43.25-12.54-64.59-19.45-6.32-2.05-9.99-.71-14.49,2.76-8.08,6.23-16.53,12.15-25.21,17.76-5.38,3.47-11.47,6.14-18.14,8.09,3.51-16.48,25.79-18.33,33.48-32.33-15.97-10.6-36.08-12.26-55.29-20.2,12.37-7.43,21.95-2.25,31.45-.85,9.4,1.38,18.78,2.93,30.02,4.7h0Z"/><path class="cls-5" d="M2859.84,746.19c16.8,4.28,32.89-1.8,48.38,2.8-1.43,6.22-6.53,6.56-11.26,6.67-15.88,.41-31.8,1.16-47.63,.53-6.98-.28-11.84,1.65-17.13,4.59-11.86,6.58-5.92,2.15-18.11,8.25-4.39,2.19-9.55,4.11-16.77,.62,3.72-2.96,6.45-5.74,9.82-7.71,15.32-8.97,12.8-6.96,28.48-15.44,4.64-2.51,5.41-5.2,4.94-9.39-.83-7.52-1.25-15.09-1.31-22.65-.04-4.67,.88-9.36,2.64-14.01,10.9,9.98,1.48,23.25,8.45,34.34,15.9-3.7,26.96-14.06,42.39-20.87-.34,10.49-8.97,13.29-14.66,17.88-5.64,4.55-11.39,9-18.21,14.39h0Z"/><path class="cls-3" d="M2697.11,892.4c-.26,6.11-3.03,11.45-10.15,14.43-7.81,3.28-16.06,5.85-23.65,9.47-28.49,13.56-56.78,27.44-85.17,41.15-4.75,2.29-9.52,4.62-14.52,6.45-4.93,1.8-9.97,1.64-12.73-3.03-2.53-4.29-1.24-8.24,3.47-11.03,9.4-5.54,18.77-11.13,28.38-16.4,11.38-6.24,22.84-12.41,34.56-18.16,20.71-10.16,41.52-20.18,62.56-29.83,6.62-3.04,15.77,.99,17.23,6.93h.01Z"/><path class="cls-3" d="M2160.3,781.39c.34-9.3-16.51-16.69,1.02-24.41,3.32,1.84,7.21,4.18,11.29,6.23,3.86,1.94,7.93,3.59,13.01,5.87,4.21-11.22,.36-22.29,10.06-31.66,2.22,2.91,4.81,4.82,5.08,6.93,1.05,8.25,2.16,16.6,1.72,24.85-.48,9.07,1.87,15.95,11.14,21.52,7.45,4.48,13.81,10.44,19.85,16.33,1.99,1.93,3.13,6.69,1.73,8.38-1.63,1.96-6.74,3.08-9.9,2.57-4.63-.75-9.8-2.43-13.11-5.16-13.09-10.8-28.71-13.04-46.18-13.26-9.99-.12-20.08-3.75-29.75-6.71-3.26-1-5.36-4.78-10.67-9.85,14.21-.67,24.3-1.14,34.71-1.63h0Z"/><path class="cls-3" d="M2454.59,857.24c-2.49-16.16-4.97-32.32-7.46-48.48-.35-2.31-.94-4.61-1.05-6.92-.3-6.65,3.98-12.89,9.35-12.86,6.95,.04,10.64,3.87,12.35,9.37,6.56,21.13,10.99,42.35,10.8,64.47-.13,15.24,3.86,30.51,6.06,45.75,.79,5.48,.49,10.34-7.37,11.99-8.1,1.7-12.67-.9-14.16-9.33-2.52-14.27-4.43-28.62-6.61-42.94-.56-3.69-1.13-7.39-1.7-11.08-.07,0-.15,.02-.22,.02h0Z"/><path class="cls-5" d="M2194,1132.45c-4.27,2.22-8.38,4.71-12.84,6.6-16.6,7.01-33.23,13.96-50.03,20.62-6.44,2.56-9.47,6.29-11.75,12.15-4.11,10.53-9.82,20.67-15.75,30.58-2.79,4.67-7.66,8.43-13.75,14.89-2.67-17.35,9.94-27.98,13.05-43.77-12.05,5.17-21.03,9.09-30.08,12.89-9.07,3.82-18.2,7.54-30.01,12.41,3.83-12.71,15.22-14.48,22.69-19.52,7.64-5.16,16.27-9.26,26.47-14.93-3.22-2.79-5.44-5.95-8.71-7.33-10.75-4.53-22.01-8.18-32.8-12.65-6.04-2.5-11.55-5.96-18.67-9.71,3.64-1.88,5.28-3.35,6.12-3.07,20.67,6.84,43.69,9.04,61.02,22.45,4.76,3.69,9.49,3.05,14.98,.55,12.94-5.9,26.02-11.67,39.43-16.75,12.22-4.62,24.3-10.47,38.47-8.92,.71,1.16,1.43,2.33,2.14,3.5h0Z"/><path class="cls-2" d="M2803.32,803.07c-3.54,15.43-23.21,23.43-27.09,37.88,5.45,4.01,12.79,6.85,13.86,10.89,1.17,4.42-3.45,9.96-6.22,16.61,12.35,3.11,24.77,6.24,37.18,9.37-.08,1.21-.16,2.42-.23,3.63-4.39,.72-8.91,2.41-13.14,1.97-11.29-1.17-22.98-2.04-33.53-5.31-10.57-3.28-18.95-.97-27.72,2.9-1.4,.62-2.28,2.06-3.66,2.76-7.3,3.75-14.33,3.56-17.79-.34-4.38-4.95-3.68-14.61,3.82-17.07,23.74-7.8,30.89-27.8,45.69-42.09,8.14-7.86,16.17-15.82,24.24-23.73,1.52,.85,3.05,1.69,4.58,2.53h0Z"/><path class="cls-3" d="M2642.15,1131.99c2.58,1.41,7.92,3.14,11.29,6.37,19.89,19.05,39.34,38.44,58.86,57.76,1.77,1.75,2.98,3.89,4.58,5.78,3.59,4.21,2.09,7.86-1.59,11.27-4.3,3.99-9.3,4.61-14.7,1.8-1.84-.95-3.61-2.18-4.95-3.6-20.43-21.52-40.98-42.94-61.03-64.71-6.5-7.05-3.7-13.91,7.54-14.67Z"/><path class="cls-5" d="M2662.36,750.44c0,6.69,.01,11.03,.02,18.09,8.38-5.55,14.73-9.75,23.78-15.74-1.33,7.32-2.16,11.88-3.3,18.19,12.9-4.6,23.97-8.54,35.03-12.48,.74,.95,1.48,1.89,2.22,2.84-2.1,2.22-3.69,5.13-6.38,6.54-11.58,6.07-23.17,12.23-35.33,17.36-15.57,6.57-24.16,18.05-32.67,30.02-4.24,5.96-7.03,13.76-18.97,14.95,.13-3.15-.2-5.69,.45-8.03,.61-2.21,2.01-4.33,3.45-6.27,11.84-15.96,16.91-33.87,20.8-52.12,1.03-4.82,1.1-10.1,10.9-13.33h0Z"/><path class="cls-2" d="M2604.01,1004.54c2.9-.6,5.92-2,8.68-1.69,31.71,3.56,63.39,7.37,95.07,11.18,2.67,.32,6,.46,7.69,1.86,2.38,1.97,5.19,5.3,4.71,7.56-.51,2.38-4.52,4.39-7.36,6.13-1.07,.65-3.22,.3-4.78,.02-31.31-5.59-62.64-11.15-93.88-16.99-3.85-.72-7.28-3.04-10.91-4.61,.26-1.15,.52-2.31,.78-3.46h0Z"/><path class="cls-2" d="M2347.57,1017.12c-7.51,1.99-12.26,3.92-17.23,4.46-23.2,2.49-46.46,4.52-69.69,6.87-7.57,.76-11.33-2.78-12.68-8.22-1.42-5.72,2.56-9.02,8.97-9.35,15.19-.78,30.41-1.21,45.63-1.64,6.5-.18,13.02-.09,19.52,.07,7.87,.2,16.3-1.07,25.47,7.8h0Z"/><path class="cls-5" d="M2307.47,1216.17c1.46,3.3,3.41,5.63,3.35,7.91-.29,11.37-5.39,22.85,1.43,34.04,.43,.7,.14,1.86-.2,2.71-6.31,16.2-12.67,32.38-19.07,48.54-.11,.28-.9,.38-3.52,1.4-1.58-2.82-4.85-5.84-4.58-8.61,2.74-28.07,3.83-56.45,17.72-82.8,.38-.72,1.62-1.1,4.87-3.2h0Z"/><path class="cls-2" d="M2774.33,1032.95c9-1.37,15.15-3.3,21.16-3.02,16.12,.74,32.19,2.31,48.25,3.84,3.1,.3,7.22,1.21,8.76,3.09,2.17,2.66,3.34,6.54,3.01,9.77-.16,1.57-4.72,4.1-7.19,4.03-23.38-.76-46.05-4.88-67.96-11.86-1.26-.4-2.04-1.91-6.02-5.84Z"/><path class="cls-2" d="M2190.82,1033.51c-24.88,10.98-50.72,19.18-78.94,20.57-3.22-6.79,.6-9.66,5.13-11.4,10.37-4,20.74-8.33,31.63-10.92,9.9-2.35,20.47-2.84,30.8-3.63,3.75-.28,7.65,.93,11.49,1.46-.03,1.3-.07,2.61-.1,3.91h0Z"/><path class="cls-5" d="M2432.2,891.14c-20.1-3.29-55.99-35.76-62.3-55.07,10.59,2.92,55.44,42.02,62.3,55.07Z"/><path class="cls-5" d="M2564.1,1054.91c21.86,13.89,38.64,30.04,54.36,49.11-13.12,3.43-18.85-4.29-24.88-8.92-24.2-18.6-30.68-27.66-29.49-40.19h0Z"/><path class="cls-5" d="M2176.4,1232.37c1.88-4.17,2.22-8.15,4.72-9.94,17-12.12,35.86-21.36,58.71-26.49-5.01,11.91-41.06,32.56-63.42,36.42h0Z"/><path class="cls-5" d="M2321.58,938.28c21.85,2.62,31.53,15.04,44.97,27.07-17.74-.37-35.88-11.56-44.97-27.07Z"/><path class="cls-5" d="M2671.29,631.34c.17-.42,.35-.84,.52-1.25-.22,.38-.44,.77-.65,1.16l.14,.09Z"/></g></svg>