<?xml version="1.0" encoding="utf-8"?>
<!-- Generator: Adobe Illustrator 25.0.0, SVG Export Plug-In . SVG Version: 6.00 Build 0)  -->
<svg version="1.1" id="图层_1" xmlns="http://www.w3.org/2000/svg" xmlns:xlink="http://www.w3.org/1999/xlink" x="0px" y="0px"
	 viewBox="0 0 200 200" style="enable-background:new 0 0 200 200;" xml:space="preserve">
<style type="text/css">
	.st0{fill:#3A82FB;fill-opacity:0.85;}
</style>
<path class="st0" d="M86.2,16.8v17C48.8,41.6,25,77.2,33,113.4s44.7,59.3,82.1,51.6c26.7-5.5,47.5-25.7,53.2-51.6h17.6
	c-8,45.6-52.6,76.3-99.7,68.6c-47.1-7.7-78.8-51-70.8-96.6C21.5,50.3,49.9,22.8,86.2,16.8z M100,16.8c46.9,0,85.1,36.4,85.9,81.8
	v1.4H100V16.8z M117.2,35.6v47.8h49.3l-0.1-0.2C160.2,60.3,142,42.4,118.5,36L117.2,35.6z"/>
</svg>
