<?xml version="1.0" encoding="UTF-8"?><svg id="BASE" xmlns="http://www.w3.org/2000/svg" viewBox="0 0 1838.5 1493"><defs><style>.cls-1{fill:#844f38;}.cls-2{fill:#7e8d56;}.cls-3{fill:#c1c04a;}.cls-4{fill:#c94636;}.cls-5{fill:#ffd55a;}.cls-6{fill:#ef791e;}.cls-7{fill:#e9dac6;}.cls-8{fill:#f49848;}.cls-9{fill:#fcbd00;}.cls-10{fill:#768450;}.cls-11{fill:#7a4933;}.cls-12{fill:#6c7949;}.cls-13{fill:#f8ae54;}.cls-14{fill:#8a9b5e;}.cls-15{fill:#d6c9b8;}</style></defs><path class="cls-2" d="M1813.8,863.7c-10.2-27.6-23.4-54.3-30.2-83-12.6-53.4-2.1-109.8-11.4-163.9-7-41.2-25.3-79.6-43.3-117.4-18.9-39.5-37.7-79-56.6-118.5-34.7,29.4-51.6,71.3-66.6,115-.4-3.6-.8-7.2-1.2-10.8-4.9-39.7-14.6-78.7-17.7-118.6-8.1-102,25.8-211.9-21-303-56.6,74.5-151.2,106.5-236.1,145.8-22.3,10.3-44.5,21.6-66,33.9-8-9.3-18.3-16.5-26-26.1-9.7-12-15.5-27.8-28.8-35.6-9-5.3-20.8-6.5-27.3-14.7-5.6-7.1-5.3-17.1-9.4-25.1-8.3-16.3-30.2-18.8-48.5-19.1,6.4-20.3,0-44.1-15.7-58.4s-40-18.4-59.6-10.1c.3-15.4-9.2-30.6-23.2-37.1-14-6.4-31.8-3.8-43.3,6.5-9.1-15.1-27-24.5-44.6-23.5-17.6,1-34.2,12.5-41.5,28.6-31.4-22.9-63.3,4.5-78.4,30.2-24.4-1.4-44.6,18.5-61.9,36.4-1,1-2.1,2-3,3-3.2,3.3-6.9,6.9-10.5,10.8-3.8,3.7-7.5,7.7-10.2,12.2-2.7,3.8-4.9,7.7-6.5,11.7-.8,.6-1.5,1.3-2.2,2.1-8.8,9.2-11.4,22.6-11.5,35.3-.1,15,4.2,32.1,17.5,39.1-18.5-3-40.3,3.8-55.6,14.6-1.3,.9-6.1,6.7-11.3,13.7-31.5-20.1-64.6-37.7-98.2-53.2-84.9-39.3-179.5-71.4-236.1-145.8-46.7,91.1-12.9,201-21,303-3.1,39.9-12.8,78.9-17.7,118.6-4.1,33.6-4.6,67.4-1.7,100.9-2.3-1-4.7-2.1-7-3.1-75.9-33.2-158.3-55.8-222.9-107.7-10.7-8.6-21.7-20-20.8-33.7-27.8,129.9-55.6,265.7-21,394,17.4,64.5,50.1,124.6,62.3,190.2-3.4,1.8-5.4,6.2-3.4,10.7,2.1,4.8,4.5,9.5,7.2,14.2,4,32.9,4.9,66.3,11.2,98.8,20.2,103.1,110.9,231.5,215,263.7,97.3,30.1,210.6,58.3,337.8,77.9-1.8,.9-3.5,1.9-5.2,2.8,96.3,14,200.3,23,311,24.1,4,0,8,0,12-.2,4,0,8,.1,12,.2,106.2-1.1,206.2-9.4,299.2-22.4,.7,.3,1.5,.6,2.2,.9,3.8,1.5,6.8,.1,8.5-2.4,.4,0,.8-.1,1.1-.2-.3-.1-.5-.3-.8-.4,.6-1,.9-2.1,1.1-3.2,124.9-19.5,236.4-47.4,332.2-77,199.6-61.8,258.1-351.8,194.2-524.5h0Z"/><g><path class="cls-7" d="M1515.5,637.8c-4.5-10.6-9.2-21.4-17.1-29.7-4.3-4.5-9.6-8.2-13.4-13.2-10.9-14.1-8.9-35.9-21.9-48.1-6.4-6-15.4-8.5-22-14.2-7.4-6.5-10.6-15.7-13.1-25.4-3.2-12.2-5.2-25.3-13.3-34.7-6.3-7.4-15.7-11.5-22.5-18.4-21.8-21.6-14.7-64-40.5-80.8-10.5-6.9-24.2-8.5-31.4-19.9-7.6-12-5-31.6-12.1-45.1-7.3-13.9-21.1-25.5-36.8-25.5,7.5-11.1,2.9-26.6-5.3-37.1-.7-.9-1.4-1.7-2.1-2.5-8-9.3-18.3-16.5-26-26.1-9.7-12-15.5-27.8-28.8-35.6-9-5.3-20.8-6.5-27.3-14.7-5.6-7.1-5.3-17.1-9.4-25.1-8.3-16.3-30.2-18.8-48.5-19.1,6.4-20.3,0-44.1-15.7-58.4s-40-18.4-59.6-10.1c.3-15.4-9.2-30.6-23.2-37.1-14-6.4-31.8-3.8-43.3,6.5-9.1-15.1-27-24.5-44.6-23.5-17.6,1-34.2,12.5-41.5,28.6-31.4-22.9-63.3,4.5-78.4,30.2-24.4-1.4-44.6,18.5-61.9,36.4-1,1-2.1,2-3,3-3.2,3.3-6.9,6.9-10.5,10.8-3.8,3.7-7.5,7.7-10.2,12.2-2.7,3.8-4.9,7.7-6.5,11.7-.8,.6-1.5,1.3-2.2,2.1-8.8,9.2-11.4,22.6-11.5,35.3-.1,15,4.2,32.1,17.5,39.1-18.5-3-40.3,3.8-55.6,14.6-1.3,.9-6.1,6.7-11.3,13.7-9,12.4-19.1,28.8-12.7,30.1-29.2-5.7-58.9,25.1-52.2,54-31.3,1.4-55.5,37.9-44.6,67.2-11.1-1-22.5,5.6-27.1,15.8-4.6,10.2-2,23.1,6.1,30.8-6,12.1-10.4,23.2-20.5,32.1-10.5,9.2-25.9,10.7-34.6,23-6.4,8.9-6.9,20.4-8.8,31.3-1,5.6-2.3,11.1-4.9,16.1-6.1,11.5-18.6,18.7-24.4,30.4-5.3,10.5-4.5,22.9-7.8,34.1-3.6,11.8-11.6,21.8-18.5,32-1.2,1.7-2.3,3.4-3.4,5.2,3,4.1,6,8.2,8.9,12.2,1.5,1.7,2.9,3.5,4.3,5.3,4.8,6,9.1,12.1,13,18.4,13.4,18.2,26.7,36.3,40.2,54.4l.6,.8c3.2,4.3,6.4,8.5,9.6,12.8,1,1.3,2,2.6,3,3.9,.4,.5,.8,1.1,1.2,1.6,9,11.9,18,23.7,27.1,35.5,13.5,17.5,27.1,34.8,40.9,52.1,3.5,4.4,7.1,8.8,10.7,13.2,.2,.2,.4,.5,.5,.7,20.8,25.7,42.1,51,63.8,75.9,7.5,8.6,15,17.1,22.5,25.6,4.3,4.8,8.6,9.6,12.9,14.3,2.3,2.5,4.5,5,6.8,7.5,9.8,10.7,19.7,21.4,29.6,32,11.3,12,22.8,24,34.3,35.8,47.8,49,97.5,96.3,148.9,141.6,26.3,23.2,53,45.8,80.2,67.9,0-1.5,.4-3.1,1.6-4.6,17.9-22.4,42.8-39.8,64.2-59,19.6-17.6,39-35.4,58.4-53.1,40.2-36.8,79.1-75,117.1-114,8.1-8.3,16.1-16.7,24.1-25.1,30.8-32.5,60.8-65.9,89.2-100.5,34.7-42.3,64.2-91.7,103.2-130.1,1.4-1.4,2.9-2.1,4.5-2.2,2.8-4.9,5.6-9.8,8.5-14.7,6.9-11.6,14.3-23,23.1-33.8,17.9-22.2,40-40.8,60.3-60.8-2.3-5.1-4.6-10.2-6.8-15.4h0Z"/><path class="cls-10" d="M641,1468.9c96.3,14,200.3,23,311,24.1,4,0,8,0,12-.2-113.5-1.7-219.7-11.7-317.8-26.8-1.8,.9-3.5,1.9-5.2,2.8h0Z"/><g><path class="cls-11" d="M1404.6,538.3c-11.8-22.3-40.2-28.3-65.1-33-1.4-.3-2.8-.6-4.2-.9-4.6-.9-9.6-1.9-14.8-2.8-5.2-1.1-10.5-2-15.7-1.8-6.4-.2-12.7,.4-18.3,2.5-13.7,5.2-22.5,18.4-29.9,31.2-2.9,5-5.7,10-8.4,15.1-19.7,36.5-35.5,75-48,114.6,4.2,6.6,6.8,14.4,7.4,22.2,0,.1,0,.3,0,.4,8.4-12,27.7-12.3,39.2-3.2,6.8,5.4,11.2,13,13.6,21.4,1.5,5.3,2.3,10.8,2.4,16.3,0,.5,0,1.1,0,1.7,.6-.3,1.3-.7,1.9-1,6.8-3.6,13.9-7,21.3-7.7,1.8-.2,3.7-.2,5.6,0,5.5,.6,10.8,3.7,14.1,8,2.8,3.7,4.2,8.2,2.8,12.7,3.2-2.8,7.2-3.3,11.1-2.3,1.8,.5,3.7,1.3,5.4,2.3,3.9,2.4,7.2,6.1,8.9,10.2,1.2,3,1.9,6,2.4,9.1,8.8-18.8,15.9-38.5,24.1-57.3,13.3-30.6,26.1-61.5,38.4-92.5,8.3-21,16.3-45.4,5.7-65.3h0Z"/><path class="cls-11" d="M911.9,160.6c-.5-.8-1.1-1.7-1.7-2.5-13.1-19.6-26.4-39.1-39.9-58.4-13-18.5-28.9-38.5-51.4-40.7-.5,0-1,0-1.5-.1-24.4-1.4-44.6,18.5-61.9,36.4-1,1-2.1,2-3,3-3.2,3.3-6.9,6.9-10.5,10.8-3.8,3.7-7.5,7.7-10.2,12.2-2.7,3.8-4.9,7.7-6.5,11.7-.6,1.6-1.1,3.3-1.5,4.9-3.2,14.3,3,28.9,9.6,42.1,2.6,5.2,5.2,10.3,8,15.4,19,35.4,41.7,68.8,66.9,100.1,.3-5.6,2.1-11.2,5.2-15.9,.3-.4,.6-.9,.9-1.3,1-1.4,2.1-2.6,3.4-3.8,3.6-3.3,7.8-5.7,12.4-7.3,11.8-4,25.7-2.3,36.8,3.9-5.5-13.6,4.8-29.9,18.7-34.6,11.3-3.8,23.6-1.5,34.4,3.8,2.5,1.2,5,2.7,7.3,4.2,.2-2.7,.5-5.4,.8-8.1,.3-2.3,.7-4.5,1.2-6.7,.9-3.9,2.2-7.6,4.2-11,.6-1.1,1.4-2.1,2.2-3.1,.3-.4,.6-.7,.9-1.1,2.2-2.3,4.9-4,7.9-5.1-6.2-8.9-12.4-17.8-18.2-26.8-4.8-7.4-9.7-14.8-14.6-22.1h0Z"/></g><path class="cls-1" d="M1256.6,533.5c-2.9,5-5.7,10-8.4,15.1-19.7,36.5-35.5,75-48,114.6,4.2,6.6,6.8,14.4,7.4,22.2,0,.1,0,.3,0,.4,8.4-12,27.7-12.3,39.2-3.2,6.8,5.4,11.2,13,13.6,21.4,5.1,1.8,10.3,3.7,15.4,5.5,3.4,1.2,6.8,2.5,10.3,3.7,1.8-.2,3.7-.2,5.6,0,5.5,.6,10.8,3.7,14.1,8,5.1,2.5,10.1,5.3,14.5,8.8,4.4-9.7,8.7-19.3,12.9-29-.6,0-1.2-.3-1.8-.5-18.2-7.2-35.1-17.2-53.4-24.4-18.3-7.2-37.3-12.2-55.8-18.8-2.2-.8-3.5-2.7-3.9-4.7-.4-2.3,.3-4.7,2.2-5.9,.8-.5,1.9-.8,3.3-.8,37.6,2.7,83.4,17.3,113.7,40.2,.6,.5,1.1,1,1.5,1.6,4.3-10,8.6-20,12.8-30.1-1.7,.4-3.6,.3-5.4-.6-19.7-9.5-36.7-21.6-57.5-29.3-16.8-6.2-33.9-10.6-49.7-19.2-2.3-1.2-1.2-4.9,1.3-4.9,36.2,.3,88.9,15.3,115.2,41.3,.4,.4,.7,.7,1,1.1,3.5-8.5,7-17,10.5-25.6-2,.9-4.4,.9-7-.2-15.9-7.2-30.8-16.5-46.7-23.6-17.8-8-36.4-13.6-54.5-20.8-2.3-.9-2.2-4.8,.6-4.6,36.2,2,78.4,14.8,108.7,35.2,1.5,1,2.5,2.2,3.1,3.5,1.5-3.7,3-7.5,4.5-11.2,2-5,3.9-10.1,5.6-15.3-6.5,2.1-16.6-6-22.3-8.8-15.7-7.6-32.5-13.2-49.1-18.3-12.8-4-26.6-5.8-38-13-2.9-1.8-2.8-7.1,1-7.8,19.6-3.6,41.4,4.7,60,10.8,17,5.6,38,11.1,51.2,23.9,.2,.2,.5,.5,.7,.8,2.8-13,2.8-26-3.3-37.5-8-15.1-25.7-24.3-42.2-28.2-1.4-.3-2.8-.6-4.2-.9-4.6-.9-9.6-1.9-14.8-2.8s-10.5-1.6-15.7-1.8c-6.4-.2-12.7,.4-18.3,2.5-13.7,5.2-22.5,18.5-29.9,31.2h0Z"/><path class="cls-1" d="M733.5,180c2.6,5.2,5.2,10.3,8,15.4,19,35.4,41.7,68.8,66.9,100.1,.3-5.6,2.1-11.2,5.2-15.9,.3-.4,.6-.9,.9-1.3-.8,0-1.5-.2-2.2-.5-2.1-.9-3.8-3.1-3.9-5.3,0-1,.2-2.1,.9-3,22.1-29.9,62.1-62.2,97.7-73.6,.2,0,.4-.1,.6-.2-5.8-8.9-11.7-17.8-17.7-26.7-.6,1.4-1.6,2.7-3.2,3.7-16.8,10.5-35.3,17-51.7,28.6-16.2,11.5-30.5,25-48.2,34.4-2.2,1.1-5.1-1.3-3.6-3.6,11.6-17.2,27.1-30.5,43.5-43.1,15.7-12.1,34.2-26.8,54-30.4,.7-.1,1.4-.2,2.1-.1-5.2-7.7-10.5-15.5-15.8-23.1-.3,2.2-1.4,4.2-3.4,5.6-15.5,10.3-32.9,17.9-48.6,28.1-15.5,10.1-29.9,21.9-45,32.6-1.9,1.3-4.6-1.3-3.2-3.2,21.5-29,56.7-58.9,90.7-72,1-.4,2-.6,3-.6-2.2-3.2-4.4-6.3-6.6-9.5-3.1-4.5-6.4-9-10-13.4-2,8.9-21.1,15.2-27.3,19.3-13.4,8.9-26,18.7-38.3,29-9.3,7.8-17.3,16.9-28.6,21.7-2.9,1.2-6.3-2.4-5.2-5.2,6.8-17.8,25.8-31.3,40.3-42.9,14.4-11.5,30.9-26.8,49.3-30.9,.5-.1,1-.2,1.6-.2-7.6-7.7-16.1-13.9-26-16.6-2.3-.6-4.7-1.1-7.2-1.3-17-1.6-34.4,8.1-46.8,19.7-1,1-2.1,2-3,3-3.2,3.3-6.9,6.9-10.5,10.8-3.6,3.8-7.1,7.9-10.2,12.2-2.7,3.8-4.9,7.7-6.5,11.7-.6,1.6-1.1,3.3-1.5,4.9-3.2,14.3,3,28.9,9.6,42.1h0Z"/><path class="cls-15" d="M979,661c-4.2,5.3-5.5,13.5-1.3,18.9,17.2,22.1,29.4,3.7,41.4-6.2,.2-.1,.3-.2,.4-.4,5.2-4.4,4.6-6.8,12.5-5.2,4.5,.9,19.5,17.5,16.7,22.1,7.4-12.2,26.1-15.5,37.3-6.8,5-12.8,22-19.2,34.2-12.9,.1-7.8,5.4-14.7,12-18.9,6.6-4.1,14.3-6,21.9-7.7-9.3-12.2-31.3-10.6-38.7,2.9-2.8-7.5-6.4-15-12.3-20.5-5.9-5.5-14.5-8.6-22.2-6.3-7.7,2.3-13.5,11-10.9,18.7-6.1-4.2-13.1-7.9-20.5-7.5-7.4,.5-14.8,6.7-14,14.1-6.3-.4-12.6-.2-18.8,.5-7,.8-13.9,2.4-20.6,4.6-6.5,2.2-13,5.2-17.2,10.5h0Z"/><path class="cls-15" d="M989.6,1102.9c.5-1.6,0-3.2-.5-4.8-2.4-8.1-1.2-19.6,7-21.4,2.7-.6,5.8,0,8.3-1.1,5.6-2.7,3.5-11.5-1.1-15.7-7.1-6.6-18.2-8.6-27.2-4.8-9,3.8-15.3,13-15.6,22.7-7.5-5.6-18.9-3.7-25.7,2.8s-9.3,16.4-8.8,25.8c-4.6-4.8-11.1-8.1-17.7-7.6-6.6,.6-13,5.8-13.5,12.4-3.3-4.6-7-9.4-12.2-11.5-5.3-2.1-12.6-.3-14.2,5.2-5.2-7.1-15.9-9.4-23.6-5.1-1.7,.8,1.9,19.1,2.4,21.2,4.4-2.8,10.1-4.6,15.4-3.7,6.1,1.1,11.5,4.7,16.1,8.7,9.2,8,16.5,18.2,21.2,29.5-1.8-7.8,7.9-14.3,15.8-12.7s13.7,8.1,18.9,14.2c2.4-10.9,15.8-17.9,26.2-13.7-5.2-14.7,5.1-32.8,20.4-35.8,3.2-.7,7.3-1.3,8.3-4.4h0Z"/><path class="cls-13" d="M1165.4,812c-7-6.5-11-15.9-10.3-26,1.3-17.5,16.6-30.8,34.5-30.5,.6,0,1.2,0,1.8,0,1.8,.1,3.7,.4,5.4,.8,12,2.7,21.3,11.5,24.7,22.7,0,.2,.1,.4,.2,.7,1,3.5,1.4,7.2,1.1,11-.5,6.8-3.1,13-7.2,17.9-.3,.4-.7,.9-1.1,1.3,3.7,1.8,7.1,4.2,10.3,6.8,1.3-3.4,2.9-7,4.8-10.3,4-6.8,9.4-12.5,16.9-12.6,2.1,0,4.1,.4,6.1,1.1,.2-1,.4-2,.6-3,.2-1.3,.4-2.6,.5-3.9,0-1.1,0-2.1,0-3.2,0-11.5-5.1-22.2-13.4-30.5-9.2-9.2-22.5-15.5-37.6-16.7-2.1-.2-4.2-.2-6.2-.2-.4,0-.8,0-1.2,0-4.2,.2-8.2,.8-12.1,1.7-20.9,5.2-36.5,21-37.9,40.8-1,13.8,5.2,26.8,15.8,36.1,0,0,0,0,.1,0,0,0,0,0,.1-.1,1.2-1.5,2.3-2.9,3.8-4h0Z"/><path class="cls-5" d="M1222.9,790.7c.3-3.8-.1-7.5-1.1-11,0-.2-.1-.4-.2-.7-3.4-11.1-12.8-19.9-24.7-22.7-1.8-.4-3.6-.7-5.4-.8-.6,0-1.2,0-1.8,0-17.9-.3-33.2,13-34.5,30.5-.8,10.1,3.3,19.5,10.3,26,2.1-1.7,4.8-2.6,9.1-1.6,2.6,.6,4.9,1.7,7.1,3.1,3.2,2.1,6,4.8,8.7,7.7,.3,0,.6,0,.9,0-.7-3.4,.9-6.8,3.4-9.4,2.5-2.5,6.1-4.2,9.7-4.3,3,0,5.8,.5,8.5,1.6,.6,.2,1.2,.5,1.8,.8,.4-.4,.7-.8,1.1-1.3,4-5,6.7-11.1,7.2-17.9h0Z"/><path class="cls-15" d="M623.1,617.4c.7,0,1.4,0,2.2,.1,15.4-5.7,30.7-9.9,45.5-12.4,.4-8.9-4.9-18.1-13.1-21.7-.2,0-.3-.1-.5-.2-9.8-3.9-22.2,.3-27.4,9.6-1.2-3.5-3-6.7-5.3-9.5-5.5-6.8-13.8-11.4-22.6-12-4.9-.3-10.1,.6-13.8,3.8-3.7,3.2-5.5,9-3,13.2-5.3-3.4-12.1-3.7-18-1.6-.9,.3-1.7,.7-2.6,1.1-3.6,1.8-6.7,4.6-8.6,8.2-2.3,4.2-28.3,9.1-12.5,21.3,4.8,3.7,16.7-1.3,23,.6,7.7,2.3,14.5,8.2,17.8,15.5,.2-6.4,5.2-12.3,11.4-13.7,4.9-1,10.2,.8,13.6,4.4,1.5-.6,2.9-1.3,4.3-1.9,2.2-2.9,6-4.8,9.7-4.8h0Z"/><path class="cls-15" d="M1315.5,864.9c3.5-8.7,1.4-19.8-6.2-25.3s-20.1-3.3-24,5.2c.4-17.2-8.5-34.3-22.4-44.4-1.7-1.2-3.5-2.3-5.3-3.3-1.5-.8-3.1-1.6-4.7-2.1-2-.7-4-1.1-6.1-1.1-7.6,.1-13,5.7-16.9,12.6-1.9,3.3-3.5,6.9-4.8,10.3-3.2-2.5-6.7-5-10.3-6.8-.6-.3-1.2-.6-1.8-.8-2.7-1.1-5.6-1.7-8.5-1.6-3.6,0-7.1,1.8-9.7,4.3-2.6,2.6-4.1,6-3.4,9.4,0,.5,.2,1,.4,1.5-.4-.5-.9-.9-1.3-1.4-2.7-2.8-5.5-5.6-8.7-7.7-2.2-1.4-4.5-2.5-7.1-3.1-4.3-1-7,0-9.1,1.6-1.4,1.1-2.6,2.6-3.8,4,0,0,0,0-.1,.1-1.1,1.3-2.2,2.5-3.6,3.5-.3,.2-.7,.4-1,.6-5.8,3.3-20,2.1-16.6,13.8,2.2,7.8,15.1,5.4,21.4,8.2,9.3,4,17,12,20.7,21.5,4.1-9.6,16.4-13.4,26.6-11.2,10.2,2.2,18.7,8.9,26.9,15.5,2.9-3.2,7.1-4.8,11.4-4.9,4-.1,8.1,.9,11.5,2.8,0,0,.1,0,.2,0,7.1,4.1,12.1,11,16.8,17.8,2.7-6.2,9.8-10.1,16.5-9.2,2.6,.4,5.1,1.4,7.7,1.6,1.9,.1,3.8-.2,5.6-.9,4.5-1.8,8.1-6,10-10.6h0Z"/><path class="cls-15" d="M1175.7,956.7c.8-1.7,1.9-3.4,3.2-4.8,5.8-6.1,16-7.6,23.3-3.2-1.7-6.3,.5-13.4,5.4-17.6,5-4.2,12.4-5.2,18.3-2.4-6-6.4-12.9-12.7-21.6-14.6-8.6-2-19.1,1.9-21.8,10.3-3.8-6.3-10.9-9.8-18.2-10.2-5.5-.3-11.1,1.1-15.5,4.3-2.5,1.8-4.6,4-6.2,6.5-5.3,8-6.5,18.9-3.1,28.1-3.5-3.4-8-5.4-12.8-6.1-10.2-1.4-21.5,3.2-26.2,12.5-3.1-5.5-7.9-10.5-14.1-11.9-4.8-1.1-10.5,.6-13.4,4.4-.6,.8-1.1,1.6-1.5,2.6-.1,.3-.2,.7-.3,1-6.4,.3-13.3,2.4-17,7.7-3.6,5.3-1.6,14.3,4.7,15.7-3.4,3.6-4,9.5-1.4,13.7,2.6,4.1,7.6,5.7,12.3,5,1.5,24.3,17.2-12.7,18.9-14.5,10.8-11.7,26-.2,32.5,13.2-3.4-7,4.8-15.2,12.5-14.8,7.8,.5,14.1,6.3,19.2,12.2-3.7-6.3-1.9-15.3,3.9-19.7s14.9-3.8,20.1,1.3c-3.6-5.4-3.9-12.8-1.2-18.7h0Z"/><path class="cls-15" d="M1149.6,714.5c2.6-2.7,11-3.3,15.7-4.8,4.9-1.5,8.5-5.9,8.5-11.2,0-1,0-2.1,0-3.1,0-3.3-2.3-6.2-5.4-7.2-8.3-2.5-20.7-1-28.6,2.7-7.8,3.5-10.1,8.2-11.6,14.3-4.3-1-9.8-2.3-11.5-2-3.1,.6-4.8,1.2-7.5,3.1-9.5,6.5-6.6,20.1-9.3,23.5,.6-.8-14.7,2.5-18.7,7.5-4.3,5.5-5.2,11.9-4.8,18.4-3.6-.4-7.2-.5-10.7-.3-9.2,.5-17.6,3.4-22.3,10.9-1.8,2.9-3.1,6.4-3.6,10.8-.6,4.6,6.6,6.2,8.6,2.3,0,0,.2-.2,.3-.3,10.4-9.6,21.1-12.4,31.9-8.4,.8,.3,1.5,.6,2.3,1,4.4,1.4,9.7-2.4,9.4-7.2-1.5-26.3,13.2-11.8,22.6-22.3,2.4-2.6,1.4-6.5,3.2-8.8,4.6-5.8,4.5-4.2,10.5-4.7,6.7-.5,11.9,1.8,17.2-4.5,2.1-2.5,1.8-7.8,3.6-9.8h0Z"/><path class="cls-15" d="M1182.2,388.8c-8.3-2.5-20.7-1-28.6,2.7-7.8,3.5-10.1,8.2-11.6,14.3-4.3-1-9.8-2.3-11.5-2-3.1,.6-4.8,1.2-7.5,3.1-9.5,6.5-6.6,20.1-9.3,23.5,.6-.8-13.8,2.2-18.3,7-.2,.2-.3,.3-.4,.5-4.3,5.5-5.2,11.9-4.8,18.4-16.8-1.7-34,1.3-36.6,21.3-.6,4.6,6.6,6.2,8.6,2.3,11.3-10.5,22.8-13.1,34.5-7.7,4.4,1.4,9.7-2.4,9.4-7.2-1.5-26.3,13.2-11.8,22.6-22.3,.7-.7,1.1-1.5,1.3-2.4,.7-2.2,.6-4.8,1.9-6.4,4.6-5.8,4.5-4.2,10.5-4.7,6.7-.5,11.9,1.8,17.2-4.5,2.1-2.5,1.8-7.8,3.6-9.8,2.6-2.7,11-3.3,15.7-4.8,4.9-1.5,8.5-5.9,8.5-11.2,0-1,0-2.1,0-3.1,0-3.3-2.3-6.2-5.4-7.2h0Z"/><path class="cls-15" d="M972.4,254.7c-1.9,2.9-3.2,6.6-3.8,11.1-.6,4.6,6.6,6.2,8.6,2.3,.3-.3,.6-.5,.9-.8,11-9.8,22.2-12.1,33.6-6.9,4.4,1.4,9.7-2.4,9.4-7.2-1.5-26.3,13.2-11.8,22.6-22.3,2.4-2.6,1.4-6.5,3.2-8.8,.2-.3,.4-.5,.6-.8,4-4.9,4.2-3.5,9.9-3.9,6.7-.5,11.9,1.8,17.2-4.5,2.1-2.5,1.8-7.8,3.6-9.8,2.6-2.7,11-3.3,15.7-4.8,4.9-1.6,8.5-5.9,8.5-11.2,0-1,0-2.1,0-3.1,0-3.3-2.3-6.2-5.5-7.2-8.3-2.5-20.7-.9-28.6,2.7-7.8,3.6-10.1,8.2-11.6,14.3-4.3-1.1-9.8-2.3-11.5-2-3.1,.6-4.8,1.2-7.5,3.1-7.1,4.9-7.3,13.6-8,19.2-.2,1.9-.6,3.4-1.2,4.3,.6-.8-14.7,2.4-18.7,7.5-4.3,5.5-5.2,11.9-4.8,18.4-13-1.3-26.2,.2-32.8,10.2h0Z"/><path class="cls-15" d="M1276.2,442c-12.3-6.5-27-5.5-37.4,5.9-2.1,2.3-1.8,5.1-.4,7,1.5,1.9,4.2,2.9,7,1.5,.2,0,.3-.1,.4-.2,9.6-4.6,21-3.2,27.9,5,.1,.1,.2,.3,.4,.4,2.2,2.3,5.3,2.6,8,1.7,2.7-1,5-3.1,5.9-5.9,4.2-1.9,8.3-3.8,12.5-5.7,4.8,2.6,12.5,.6,13.6-5.5,1.3-7.6,8.2-6.7,15.5-7.4,8.9,5.6,12.3,14.5,24.3,14.3,3.2,0,5.1-2.5,5.4-5.4,2.3-18.6-18.7-27.2-32.8-28.1-14.4-.9-23.6,1.8-28.1,13-8.9-.9-17,2.2-22.2,9.4h0Z"/><path class="cls-15" d="M1079.7,247.9c-4.2,4.6,1.1,11.3,6.6,8.5,9.7-4.9,21.3-3.5,28.3,4.8,4.4,5.2,12.5,1.9,14.3-3.8,4.2-1.9,8.3-3.8,12.5-5.7,4.8,2.6,12.5,.6,13.6-5.6,1.3-7.6,8.2-6.7,15.5-7.4,8.9,5.6,12.3,14.5,24.3,14.3,3.2,0,5.1-2.5,5.4-5.4,2.3-18.6-18.7-27.2-32.8-28.1-14.4-.9-23.6,1.8-28.1,13.1-8.9-.9-17,2.2-22.2,9.4-12.3-6.6-27-5.5-37.4,5.9h0Z"/><path class="cls-15" d="M907.9,641.2c2.8-6.3,7.3-9.5,13.5-9.6,6.7-1.2,7.2-10.8,1.8-14,3.1-1.5,6.4-2.1,9.8-1.6,9.5,.1,11.5-11.9,4.5-16.8-9.5-6.7,16.8-.5,10.5-1.9,4.8,1.1,9.2-4,6.6-8.6-13.5-23-44.2-6.9-36.9,12.9-3.8,1.9-7.1,4.7-8.9,9.2-1.2,3-1.6,6-1.1,8.9-7.3,2.9-13.3,7.6-15.2,14.5-5.4-1-10.9-2-15.9-1.7-7.2,.3-13.5,3.3-16.9,12.7-2.1,5.7,6.6,9,9.5,4,1.2-2.1,3.3-3,5.9-3.3,7.8-.8,19.9,4.6,25.3,5.3,5.1,.6,8.9-5.5,7.5-9.9h0Z"/><path class="cls-15" d="M1076.2,1074.1c-3.8,1.1-7.4,4.4-10.6,7.9-9.4-7.6-25-4.2-27.5,11.2-1.4,8.8,11.6,12.7,13.6,3.7,1.8,0,3.6,0,5.4,0,1.1,6,9.1,7.2,13,3.4,3.4-3.3,7.8-6.2,4.7-10.9,4.5,6.9,16.4,4.6,16.2-4.4-.2-7.3,14.8-8.5,19.2-9.8,5.9-1.8,10.6-3.8,15.7-7.3,2-1.4,3.1-4.1,1.7-6.3-12.2-19.2-42.4-6.2-51.2,12.4h0Z"/><path class="cls-15" d="M1470.2,647.4c-13.8-5.2-29.8-5.5-39.8,7.3-5.2,6.6-6.7,14.4-5.1,21.7-6.2,3-12.7,7.5-17.3,12.6-15.9-3.2-33.9,9.6-32.7,29.6,.3,4.3,6.3,8.1,9.6,4,2.9-3.6,11.2-15.9,18.1-14.2,1.5,2.7,4.2,5.3,8.4,7.7,8.9,5,19.2-5.1,14-14-.8-1.3-1.6-2.6-2.5-3.7,4.1-.8,15.9-6.4,18.3-7,6.7-1.5,10-11.8,4.3-16.3-.2-9.5,3.4-14.2,10.7-14,4.1-1,8.2-1.6,12.3-1.9,6.8-.6,8.1-9.4,1.6-11.8h0Z"/><path class="cls-15" d="M862.8,898.9c1.5-3.7,1.7-7.6,5.3-10,4.5-2.9,8.9,.5,12.2,3.4,7.5,6.5,12.3,14.5,17.3,22.9,1.6,2.7,6,3.7,8.2,1.1,4.7-5.4,12.5-3.8,17.6,.3,5.8,4.6,9.3,12,12.7,18.4,2.6,5.1,9.4,3,11.1-1.5,1.3-3.4,3-6.6,5.3-9.5,1-1.3,2.1-2.5,3.3-3.6l1.4-1.3c.8-.2,1.4-.5,1.7-.9,2.8,4.6,10.8,2.4,11.2-3.5,.7-11,11.7-14.3,20.8-10.7,5.8,2.3,8.7-6.4,4-9.5-13.4-8.9-28.8-2-34.6,10.9-3.3,0-6.8,1.3-9.6,3.4-3.9,3-7.1,6.5-9.7,10.5-4.2-6.3-9.3-11.8-16.6-14.7-6.7-2.7-14-2.5-20.2,.4-3.1-5.5-7.3-10.6-11.6-15-5-5.1-11-10.8-18.4-11.9-10.2-1.5-26.1,12.5-16.2,22.1,1.6,1.6,3.9,.7,4.7-1.2h0Z"/><path class="cls-15" d="M1043.5,870.7c3.3-1.4,5.9-2.9,7.9-6,2-3.2-1.9-6.6-4.9-5-2.9,1.6-6,2.9-9.2,4-3.6,1.2-7.1,2.5-9.9,4.9-2.3,2-4.1,4.7-5,7.7-3.1-.4-6.4,.1-9.3,1.6-6.8,3.5-9.5,11.5-10.7,18.5-.8,4.3,5.7,6.3,6.7,1.8,1-4.5,2.4-10,6.5-12.8,2.4-1.7,5.9-1.7,7.7,0,.4,.6,.8,1.2,1.3,1.7,3.3,3.5,9.3-1,6.7-5.2-.3-.5-.7-1-1-1.4,0-.2,0-.5,0-1,0-.4,.5-1.6,.9-2.3,1.1-1.9,2.9-3,4.8-3.9,2.4-1.1,5-1.8,7.4-2.8h0Z"/><path class="cls-15" d="M879.5,551.1c-1.4-2.1-2.8-4.2-4.2-6.4-3.8-5.7-7.6-11.4-11.3-17.1-3.2-4.8-6.6-9.8-11.8-12.1s-12.7-.5-14.3,5c-4.5-5-6.9-11.4-10-17.3s-7.2-11.8-13.4-14.3c-6.2-2.5-14.7,.2-16.5,6.6-4.8-8.2-12-15.9-21.4-17.1-9.4-1.2-19.9,7.6-17.2,16.7-3.8-12.9-35-11.6-43.6-7.6-9.4,4.4-23.9,20.9-10,29.7,3.2,2,8.2,3.9,7.2,7.6-.3,1.1-1.1,1.9-1.8,2.7-10.2,11.2-10.7,38.8,9.5,40.9,17.6,1.8,21.6-28.6,39.5-26.2,11.2,1.5,20,10.9,24.1,21.4-1.8-10.8,8.5-20.9,19.5-22,10.9-1.2,21.5,4.3,30,11.3-.9-8.1,10.3-11.5,18.4-10.5,8.2,1,16.2,3.4,23.7,6.9,1.2,.6,2.5,1.2,3.7,1.9h0Z"/><path class="cls-15" d="M653.9,323.5c3.2,2,8.2,3.9,7.2,7.6-.3,1.1-1.1,1.9-1.8,2.7-10.2,11.2-10.7,38.8,9.5,40.9,17.6,1.8,21.6-28.6,39.5-26.2,11.2,1.5,20,10.9,24.1,21.4-1.8-10.8,8.5-20.9,19.5-22,10.9-1.2,21.5,4.3,30,11.3-.6-5.3,4-8.6,9.5-9.9,2.9-.7,6.2-.9,9-.6,5.7,.7,11.3,2.1,16.7,4,3.7,1.3,7.2,2.9,10.6,4.8-5.2-7.8-10.4-15.7-15.5-23.5-1.3-1.9-2.6-3.9-4.1-5.7-2.2-2.7-4.6-5-7.7-6.4-5.2-2.3-12.7-.5-14.3,5-4.5-5-6.9-11.4-10-17.3s-7.2-11.8-13.4-14.3c-6.1-2.4-14.5,.1-16.4,6.4,0,0,0,.1,0,.2-.1-.2-.2-.4-.3-.6-4.3-7.1-10.4-13.7-18.2-15.9-1-.3-1.9-.5-2.9-.6-9.4-1.2-19.9,7.6-17.2,16.7-3.8-12.9-35-11.6-43.6-7.6-9.4,4.4-23.9,20.9-10,29.7h0Z"/><path class="cls-15" d="M1007.6,342.1c-4.8-8.2-12-15.9-21.4-17.1-9.4-1.2-19.9,7.6-17.2,16.7-2.6-8.7-17.7-11-29.9-10.2-2,.1-3.9,.3-5.7,.6-3.4,.5-6.2,1.2-8,2.1-5.1,2.4-11.6,8.2-14.4,14.5-.3,.7-.6,1.4-.8,2.1-1.4,4.7-.3,9.5,5.2,13,3.2,2,8.2,3.9,7.2,7.6-.3,1.1-1.1,1.9-1.8,2.7-6.1,6.7-8.8,19.3-5.5,28.8,2.2,6.3,6.9,11.2,15,12.1,17.6,1.8,21.6-28.6,39.5-26.2,11.2,1.5,20,10.9,24.1,21.4-1.8-10.8,8.5-20.9,19.5-22,10.9-1.2,21.5,4.3,30,11.3-.9-8.1,10.3-11.5,18.4-10.5,8.4,1,16.7,3.5,24.3,7.2,1,.5,2.1,1,3.1,1.6-.7-1-1.3-2-2-3-4.5-6.8-9-13.6-13.5-20.5-3.2-4.8-6.6-9.8-11.8-12.1-5.2-2.3-12.7-.5-14.3,5-4.5-5-6.9-11.4-10-17.3-2.1-4.1-4.7-8.1-8.2-11.1-1.6-1.3-3.3-2.4-5.2-3.2-6.2-2.5-14.7,.2-16.5,6.6h0Z"/><g><path class="cls-4" d="M950.4,1002c-14.5-12.4-25.5-31.3-41.8-40.8-6.3-3.7-16.4,.9-15.7,9,2.2,22.6,22.7,41.5,39.9,54.6,16.9,12.8,40.9,27.7,63,23.7,5.4-1,6.1-7.9,3-11.4-12.8-14.5-33.6-22.3-48.4-35h0Z"/><path class="cls-4" d="M1110.5,789.4c-.4,0-.8,0-1.2,.2-17,2.2-32.9,9.6-49.6,13.6-1.2,.3-2.4,.6-3.7,.8-20.2,4.1-41.5,1.3-61.2,6.8-7,2-9.6,10.9-5.6,16.3,.8,1.1,1.8,2,3.1,2.7,20.7,11.4,53.6,9.9,81.3-.2,5.3-1.9,10.4-4.2,15.1-6.7,11.7-6.2,21.5-14.1,27.7-23.2,1.1-1.7,1.2-3.8,.5-5.7-1-2.7-3.4-4.9-6.4-4.5h0Z"/><path class="cls-4" d="M1169.8,288.1c-18.7,2.1-36,10.8-54.5,14.5-20.2,4.1-41.5,1.3-61.2,6.8-1.8,.5-3.3,1.5-4.5,2.7-2.9,3.1-3.8,7.9-2.1,11.8,.8,1.8,2.2,3.4,4.2,4.5,34.2,19,102.2,2.3,124.1-30.1,2.7-4-.8-10.9-5.9-10.3h0Z"/><path class="cls-4" d="M1154.5,586.6c-16.5-11.2-37.7-15.1-55.3-24.8-16.8-9.3-30.9-24-48.7-31-7.2-2.8-15.4,5.7-12.8,12.8,13.1,35.6,78.8,68.1,115.2,55.5,5.7-2,6.6-9.1,1.6-12.5h0Z"/><path class="cls-4" d="M876.1,442.9c-9.5-1.9-19.2-2.3-28.8-2.4-10.4-.2-20.9-.1-31.3-1.7,0,0-.2,0-.3,0-19.1-2.9-37-11.2-56.2-12.5-9.4-.6-13.2,11.6-7.4,17.8,.5,.5,.9,1,1.4,1.4,22.2,21.7,69.8,29.5,103.4,19.8,7.9-2.3,15-5.5,20.9-9.8,4.3-3.1,4.7-11.2-1.6-12.5h0Z"/><path class="cls-4" d="M483.4,554.8c-28,26.5-34.2,94.5-11.4,125.7,3.1,4.3,11.2,4.7,12.5-1.6,4-19.9,1.1-40.3,4.2-60.4,2.9-19.1,11.2-37,12.5-56.2,.6-9.4-11.6-13.2-17.8-7.4h0Z"/><path class="cls-4" d="M949.1,705.1c-27,25.5-33.7,89.4-13.8,122,.8,1.3,1.6,2.5,2.4,3.7,3.1,4.3,11.2,4.7,12.5-1.6,.1-.6,.2-1.2,.3-1.8,3.5-19.3,.8-39.1,3.8-58.6,2.9-19.1,11.2-37,12.5-56.2,.6-9.4-11.6-13.2-17.8-7.4h0Z"/><path class="cls-4" d="M933,70.8c19.5,.4,38.5,6.7,57.9,5.6,8.1-.4,14.8-11.6,7.4-17.8-30.7-25.3-98.6-23.8-127.7,3.8-4.6,4.3-.8,11.2,4.8,11.7,19.2,1.5,38.4-3.6,57.7-3.3Z"/></g><path class="cls-9" d="M1030.7,974.1l-2.8-2.2c-2.2-1.2-4.5-1.9-7-1.9-1.9,0-3.7,.3-5.3,1.2-1.7,.6-3.2,1.5-4.5,2.9-1.3,1.3-2.3,2.7-2.9,4.5-.9,1.7-1.3,3.4-1.2,5.3,.2,1.2,.3,2.5,.5,3.7,.7,2.3,1.8,4.4,3.6,6.1l2.8,2.2c2.2,1.2,4.5,1.9,7,1.9,1.9,0,3.7-.3,5.3-1.2,1.7-.6,3.2-1.5,4.5-2.9,1.3-1.3,2.3-2.7,2.9-4.5,.9-1.7,1.3-3.4,1.2-5.3-.2-1.2-.3-2.5-.5-3.7-.7-2.3-1.8-4.4-3.6-6.1h0Z"/><path class="cls-9" d="M1262.8,896.9c-13.4,0-13.5,20.9,0,20.9s13.5-20.9,0-20.9Z"/><path class="cls-9" d="M1332.4,796.3c-12.9,0-12.9,20.1,0,20.1s12.9-20.1,0-20.1Z"/><path class="cls-9" d="M1217.2,322.5c12.9,0,12.9-20.1,0-20.1s-12.9,20.1,0,20.1Z"/><path class="cls-9" d="M1198.8,388.3c-1.3,4.7,0,10.5,3.7,13.9,.5,.5,1.1,1,1.6,1.4,3.5,3.2,8.1,4.7,12.8,3.4,2.2-.6,4.2-1.8,5.8-3.4,1.6-1.6,2.8-3.6,3.4-5.8l.3-1.9c.7-2.5,.7-5,0-7.6-.7-2.4-1.9-4.5-3.7-6.3-3.6-3.6-9-5-13.9-3.7-4.8,1.3-8.6,5.2-10,10h0Z"/><path class="cls-9" d="M1033.8,122.3c.5,.5,1.1,1,1.6,1.4,3.5,3.2,8.1,4.7,12.8,3.4,2.2-.6,4.2-1.8,5.8-3.4,1.6-1.6,2.8-3.6,3.4-5.8l.3-1.9c.7-2.5,.7-5.1,0-7.6-.7-2.4-1.9-4.5-3.7-6.3-3.6-3.6-9-5-13.9-3.7-4.8,1.3-8.6,5.2-10,10-1.3,4.7,0,10.5,3.7,13.9h0Z"/><path class="cls-9" d="M1163.3,495.8c-3.6-3.6-9-5-13.9-3.7-4.8,1.3-8.6,5.2-10,10-1.3,4.7,0,10.5,3.7,13.9,.5,.5,1.1,1,1.6,1.4,3.5,3.2,8.1,4.7,12.8,3.4,2.2-.6,4.2-1.8,5.8-3.4,1.6-1.6,2.8-3.6,3.4-5.8l.3-1.9c.7-2.5,.7-5,0-7.6-.7-2.4-1.9-4.5-3.7-6.3h0Z"/><path class="cls-9" d="M985.4,608.7c.9,.7,1.8,1.4,2.7,2.1,2.1,1.2,4.3,1.8,6.7,1.8,1.8,0,3.5-.3,5.1-1.1,1.6-.5,3.1-1.5,4.3-2.7,1.3-1.2,2.2-2.6,2.7-4.3,.8-1.6,1.2-3.3,1.1-5.1-.2-1.2-.3-2.3-.5-3.5-.6-2.2-1.8-4.2-3.4-5.8-.9-.7-1.8-1.4-2.7-2.1-2.1-1.2-4.3-1.8-6.7-1.8-1.8,0-3.5,.3-5.1,1.1-1.6,.5-3.1,1.5-4.3,2.7-1.3,1.2-2.2,2.6-2.7,4.3-.8,1.6-1.2,3.3-1.1,5.1,.2,1.2,.3,2.3,.5,3.5,.6,2.2,1.8,4.2,3.4,5.8Z"/><path class="cls-9" d="M866,611.3c15.5,0,15.5-24.1,0-24.1s-15.5,24.1,0,24.1Z"/><path class="cls-9" d="M885.1,815.6c9.6,0,9.6-14.9,0-14.9s-9.6,14.9,0,14.9Z"/><path class="cls-9" d="M805.1,1041.5c-19.9,0-19.9,30.9,0,30.9s19.9-30.9,0-30.9Z"/><path class="cls-9" d="M617.1,390c19.6,0,19.7-30.5,0-30.5s-19.7,30.5,0,30.5Z"/><path class="cls-9" d="M512.7,635c-14.5,0-14.5,22.5,0,22.5s14.5-22.5,0-22.5Z"/><path class="cls-9" d="M897.3,536.3c15.2,0,15.3-23.7,0-23.7s-15.3,23.7,0,23.7Z"/><path class="cls-9" d="M1043.5,514.2c13.7,0,13.7-21.3,0-21.3s-7.5,2.3-9.1,5.3c-.5,1.1-.9,2.2-1.1,3.5-.9,5.9,2.5,12.5,10.1,12.5Z"/><path class="cls-8" d="M861.2,757.1c-.8-8.2-2.2-16.3-4.2-24.1-.4-1.7-.9-3.3-1.3-5-6-20.7-16.1-39.7-30.7-56-1.8-2-3.6-3.9-5.4-5.7-3.8-6.2-8.1-12-13-17.5-4.9-5.5-10.2-10.4-15.8-14.8-28.3-28-71.9-37.1-120-28.9-14.8,2.5-30.1,6.7-45.5,12.4-3.9,1.5-7.9,3-11.8,4.7-1.4,.6-2.9,1.2-4.3,1.9-19.8,8.8-39.7,20.1-58.9,34-9.8,7-19.3,14.7-28.7,23-.2,.2-.5,.4-.7,.7-17.1,15.2-32.2,31.6-45.2,48.4l.6,.8c3.2,4.3,6.4,8.5,9.6,12.8,1,1.3,2,2.6,3,3.9,.4,.5,.8,1.1,1.2,1.6,9,11.9,18,23.7,27.1,35.5,13.5,17.5,27.1,34.8,40.9,52.1,3.5,4.4,7.1,8.8,10.7,13.2,5-2.2,10.1-3.5,15.1-3.6,10.4-.3,20.4,3.5,28.5,9.9,5.9,4.6,10.8,10.6,14,17.3,3.4,6.9,5.1,14.5,4.5,22.2,6.5-13.9,25.2-19.4,39.4-13.7,3.1,1.2,5.9,2.9,8.5,4.8,1.4,1,2.7,2.2,3.9,3.4,4.5,4.4,8,9.9,10.4,15.9,1.5,3.7,2.5,7.5,3.1,11.4,3.9-2.5,8.6-2.8,13-1.6,5,1.3,9.7,4.4,12.8,8.5,.7,.9,1.3,1.8,1.9,2.8,2.3,3.7,3.8,7.8,5,12.1,1.1,4.1,1.8,8.4,2.6,12.6,9.2,1.5,17,9.6,18,18.9,5.6-6.3,5.9-15.4,8-23.6,2.1-8.1,8.4-16.9,16.7-15.8-7-13.4,3.8-28.8,14-39.9,4-4.4,8.1-8.9,12.1-13.3,3.7-4.1,8-8.5,13.5-8.9,5.5-.4,11.2,6.1,8,10.6,4.3-1.8,8.9-1.7,13.2-.3,9.6-18.3,16.7-37.1,21.3-55.8,5.6-22.7,7.3-45.3,5.2-66.9h0Z"/><path class="cls-6" d="M807.1,655.2c10.7,18.6,15.4,40.7,14.6,64.6-.3,8.9-1.3,18-3.1,27.3-4.5,23.3-13.6,47.6-26.9,71.6-17,30.5-40.8,60.5-70.8,87.2-3.8,3.4-7.7,6.8-11.7,10,5,1.3,9.7,4.4,12.8,8.5,.7,.9,1.3,1.8,1.9,2.8,2.3,3.7,3.8,7.8,5,12.1,4.6-3.7,9.2-7.6,13.7-11.6,35.6-31.7,61.9-68.8,77.9-106.3,6-14.2,10.6-28.4,13.6-42.5,2.2-10.2,3.6-20.2,4.2-30.1,.5-8.5,.4-16.9-.4-25-1.9-20.9-8-40.4-18.3-57.5-3.8-6.2-8.1-12-13-17.5-4.9-5.5-10.2-10.4-15.8-14.8,1.5,1.5,2.9,2.9,4.3,4.5,4.6,5.2,8.6,10.8,12,16.7h0Z"/><path class="cls-12" d="M476.5,972c-9.2-11.7-18.4-23.4-27.4-35.2-5.3-7-10.6-14-15.9-21-3.4-4.6-6.8-9.1-10.2-13.7-26.7-35.9-52.7-72.3-78.5-108.8-8-11.3-16-22.7-24-34-1.6-2.3-5.3-.3-3.8,2.2,7.9,13.7,16.1,27.1,24.5,40.3,27.5,43.1,57.6,84,89.7,123.5,5.3,6.5,10.6,12.9,16,19.3,4.4,5.2,8.8,10.3,13.2,15.5,1.2,1.4,2.4,2.8,3.6,4.2,1.5,1.7,2.9,3.3,4.4,5,9.4,10.8,19,21.4,28.7,32,5.3,5.8,10.7,11.6,16.1,17.3,.6,.6,1.5-.3,.9-.9-3-3.6-6-7.2-9-10.8-7.1-8.6-14.1-17.2-21.1-25.9-2.4-3-4.9-6.1-7.3-9.1h0Z"/><path class="cls-12" d="M1034.3,1381.2c-1.1-.4-2.1-.9-3.2-1.3-10-4.2-19.9-8.5-29.7-12.9-7.9-3.5-15.7-7.1-23.5-10.7-4.8-2.2-9.6-4.5-14.4-6.8-2.3-1.1-4.5-2.2-6.8-3.3-8.5-4.1-16.9-8.3-25.3-12.5-13.7-6.9-27.2-14.1-40.6-21.4-119.9-65.5-230.5-147.1-328.5-244.6l-.6,.6c91.7,99.6,198.7,186.8,317.4,252.4,12.7,7,25.5,13.8,38.5,20.3,8.3,4.2,16.6,8.2,25,12.2,2.1,1,4.3,2,6.4,3,4.8,2.2,9.6,4.4,14.4,6.6,7.2,3.2,14.4,6.3,21.7,9.4,10.2,4.2,20.4,8.3,30.7,12.3,1.4,.5,2.8,1.1,4.2,1.6,7.2,2.7,14.4,5.3,21.7,7.9,10.7,3.7,21.4,7.3,32.2,10.7,11.9,3.7,23.8,7.2,35.9,10.5,4.8,1.3,9.5,2.6,14.3,3.8,1.9,.5,3.8,1,5.7,1.4,1.7,.4,2.3-2,.7-2.6l-.5-.2c-4.1-1.4-8.2-2.8-12.2-4.3-10.6-3.7-21.1-7.6-31.5-11.5-10.7-4-21.4-8.2-32-12.5-6.7-2.7-13.3-5.4-19.9-8.2h0Z"/><path class="cls-12" d="M1145.6,1455.3c-3.8,0-7.7,.1-11.5,.1-28.9,.2-57.8-.9-86.7-2.7-9.8-.6-19.6-1.3-29.4-2.1-17.8-1.4-35.6-3.2-53.3-5.2-22.9-2.6-45.8-5.7-68.6-9.2-15.6-2.4-31.2-5.1-46.8-8-15.4-2.9-30.8-6-46.2-9.3-2-.4-4-.9-5.9-1.3-4.9-1.1-9.8-2.2-14.7-3.3-10.7-2.5-21.3-5.1-31.9-7.7-142.2-35.9-279.7-90.3-407.2-162.8-37.1-21.1-73.6-43.7-109.2-67.5-38-25.4-75.1-52.1-111.3-79.8-4.5-3.5-10.6,4.3-6.2,8,37.5,31.6,76.8,61.3,117.5,89.2,149.5,102.4,318.6,179.1,494.4,226.2,16.6,4.4,33.2,8.6,49.8,12.5,21,4.9,42,9.4,63,13.4,13.1,2.5,26.2,4.9,39.2,7.1,27.9,4.7,56,8.6,84,11.7,.9,0,1.8,.2,2.7,.3,5.8,.6,11.6,1.2,17.5,1.8,44,4.3,88.3,6.5,132.5,6.9,45.4,.4,89.7,1.3,133.9-8.7,1.8-.4,2.9-1.5,3.4-2.8-5.8-2.5-11.5-5.1-17.2-7.8-30.7-1.2-61.2,.5-92.1,1.1h0Z"/><path class="cls-14" d="M128.7,724.8c37.7,76.8,82,150.4,134.5,218.1,6,7.8,12.2,15.5,18.5,23.1,109.5,133.4,251.5,241.8,403.3,322.3,45.5,24.2,94,48,143.9,67.8,12,4.8,24.1,9.3,36.2,13.5,7.9,2.8,15.9,5.4,23.8,7.9,2.5,.8,4.9,1.5,7.4,2.3,5.2,1.6,10.4,3.1,15.5,4.5,10.2,2.8,20.4,5.4,30.7,7.8,7.3,1.7,14.6,3.2,21.9,4.6,4,.8,8.1,1.5,12.1,2.1,4.8,.8,8-2.6,8.2-6.2,.2-2.6-1.2-5.3-4.7-6.6-5.6-2.1-11.3-4.1-16.9-6.1-7.2-2.5-14.5-5-21.7-7.4-5.3-1.8-10.7-3.5-16-5.3-2.3-.8-4.7-1.5-7-2.3-9.2-3-18.4-6.1-27.6-9.2-12.6-4.3-25.2-8.7-37.6-13.6-.8-.3-1.7-.7-2.5-1-42.5-16.7-84.3-35.4-125-56.1-82.6-41.8-161.2-91.9-234.1-149-75.2-58.9-142.3-124.6-200.8-197.5-48.8-60.8-91.7-126.5-128.3-197.3-44.4-85.7-74-177.2-115.2-264.1-4-8.3-16.7-2.4-14.5,6.1,21.1,83.1,58.4,164.7,96.1,241.4h0Z"/><path class="cls-10" d="M1813.8,863.7c-10.2-27.6-23.4-54.3-30.2-83-12.6-53.4-2.1-109.8-11.4-163.9-7-41.2-25.3-79.6-43.3-117.4-18.9-39.5-37.7-79-56.6-118.5-34.7,29.4-51.6,71.3-66.6,115-.4-3.6-.8-7.2-1.2-10.8-4.9-39.7-14.6-78.7-17.7-118.6-8.1-102,25.8-211.9-21-303-56.6,74.5-151.2,106.5-236.1,145.8-22.3,10.3-44.5,21.6-66,33.9,.7,.8,1.4,1.7,2.1,2.5,8.3,10.5,12.8,26.1,5.3,37.1,15.7,0,29.5,11.6,36.8,25.5,7.1,13.5,4.5,33.1,12.1,45.1,7.2,11.4,21,13,31.4,19.9,25.7,16.8,18.7,59.1,40.5,80.8,6.9,6.8,16.2,11,22.5,18.4,8.1,9.4,10.1,22.4,13.3,34.7,2.5,9.7,5.7,18.9,13.1,25.4,6.6,5.8,15.6,8.3,22,14.2,13,12.2,11,34,21.9,48.1,3.8,5,9.1,8.7,13.4,13.2,7.9,8.3,12.6,19.1,17.1,29.7,2.2,5.2,4.5,10.3,6.8,15.4-20.3,20.1-42.3,38.7-60.3,60.8-8.8,10.9-16.2,22.3-23.1,33.8-2.9,4.9-5.7,9.8-8.5,14.7-1.5,.1-3.1,.8-4.5,2.2-38.9,38.4-68.4,87.9-103.2,130.1-28.4,34.6-58.4,68-89.2,100.5-8,8.4-16,16.8-24.1,25.1-38,39-76.9,77.2-117.1,114-19.4,17.8-38.8,35.6-58.4,53.1-21.3,19.1-46.3,36.6-64.2,59-1.2,1.5-1.6,3.1-1.6,4.6-27.2-22.1-53.9-44.7-80.2-67.9-51.4-45.3-101.1-92.5-148.9-141.6-11.5-11.8-23-23.8-34.3-35.8-10-10.6-19.8-21.2-29.6-32-2.3-2.5-4.5-5-6.8-7.5-4.3-4.8-8.6-9.5-12.9-14.3-7.6-8.5-15.1-17-22.5-25.6-21.7-24.9-43-50.2-63.8-75.9-.2-.2-.4-.4-.5-.7-3.6-4.4-7.1-8.8-10.7-13.2-13.8-17.2-27.4-34.6-40.9-52.1-9.1-11.8-18.1-23.6-27.1-35.5-.4-.5-.8-1.1-1.2-1.6-1-1.3-2-2.6-3-3.9-3.2-4.3-6.4-8.5-9.6-12.8l-.6-.8c-13.5-18.1-26.9-36.2-40.2-54.4-5.8-7.9-11.6-15.8-17.4-23.7-3-4.1-6-8.1-8.9-12.2,1.1-1.7,2.2-3.5,3.4-5.2,6.9-10.2,15-20.1,18.5-32,3.4-11.2,2.6-23.6,7.8-34.1,5.9-11.7,18.3-18.8,24.4-30.4,2.6-5,4-10.5,4.9-16.1,1.9-11,2.4-22.4,8.8-31.3,8.6-12.3,24.1-13.8,34.6-23,10.1-8.8,14.5-20,20.5-32.1-8.1-7.6-10.7-20.6-6.1-30.8,4.6-10.2,16-16.8,27.1-15.8-10.8-29.4,13.3-65.8,44.6-67.2-6.7-28.9,23-59.7,52.2-54-6.3-1.2,3.7-17.7,12.7-30.1-31.5-20.1-64.6-37.7-98.2-53.2-84.9-39.3-179.5-71.4-236.1-145.8-46.7,91.1-12.9,201-21,303-3.1,39.9-12.8,78.9-17.7,118.6-4.1,33.6-4.6,67.4-1.7,100.9,30.2,13.6,60.2,29.8,86.8,50.1,6.9,5.3,13.6,10.8,20.1,16.6-4.9,.8-9,5.8-5.5,11.4,3.5,5.6,6.9,11.3,10.5,16.9,14.6,23.3,29.8,46.2,45.4,68.8,5.6,8.1,11.3,16.1,17,24.1,.3,.5,.7,.9,1,1.4,3.2,4.5,6.5,9,9.7,13.5,1.1,1.5,2.1,2.9,3.2,4.4,6.7,9.1,13.4,18.2,20.2,27.2,8.1,10.7,16.3,21.3,24.6,31.9,9.6,12.2,19.3,24.2,29.1,36.2,20.4,24.9,41.3,49.4,62.6,73.5,7.5,8.5,15,16.9,22.6,25.3,4.2,4.7,8.5,9.3,12.8,14,2.2,2.4,4.4,4.8,6.6,7.2,9.8,10.6,19.7,21.2,29.6,31.6,.9,.9,1.8,1.9,2.7,2.8,10.3,10.8,20.6,21.5,31.1,32.1,74.5,75.8,153.5,147.4,236.4,213.9,14.1,11.3,28.4,22.5,42.8,33.6,6.7,5.1,13.3,10.2,20.1,15.3,2.5,1.9,5,3.8,7.6,5.7,3.8,2.9,7.7,5.7,11.6,8.6,1.3,.9,2.5,1.9,3.8,2.8,7.4,5.5,14.9,11,22.4,16.4,6.9,5,13.9,10,20.9,14.9,.6,.4,1.2,.8,1.8,1.3,4.5,3.2,9,6.3,13.6,9.5,9.8,6.8,19.7,13.5,29.7,20,7.2,4.7,14.4,9.3,21.7,13.9,2.8,1.7,5.5,3.4,8.3,5.1,7.3,4.4,14.6,8.8,22,13.1,4.3,2.5,8.7,5,13.1,7.4,8.9,4.9,17.9,9.7,27.1,14.3,.4,.2,.8,.4,1.2,.6,5.2,2.6,10.5,5.2,15.8,7.7,5.7,2.7,11.4,5.3,17.2,7.8,4.7,2.1,9.4,4.1,14.1,6,2.1,.9,4.2,1.7,6.3,2.5,.7,.3,1.5,.6,2.2,.9,3.8,1.5,6.8,.1,8.5-2.4,.1-.2,.2-.4,.3-.6,.6-1,.9-2.1,1.1-3.2,124.9-19.5,236.4-47.4,332.2-77,199.6-61.8,258.1-351.8,194.2-524.5h0Z"/><path class="cls-9" d="M682.7,935.7c1.9-8.8-2.9-19.3-14.5-19.3-18.7,0-19.8,27.3-3.4,30.6,1.1,.2,2.2,.3,3.4,.3,8.3,0,13.1-5.4,14.5-11.7h0Z"/><path class="cls-3" d="M948.2,139.2c-15.7-1.1-29.8,7.8-36.3,21.4,4.9,7.4,9.7,14.7,14.6,22.1,5.8,8.9,12,17.8,18.2,26.8,5.9-2.2,12.7-1.8,17,2.4,.2-.1,.5-.2,.7-.4-.2-7.5,7.2-13,15.1-14.4,3-5,4.8-10.8,5.3-17,1.5-21.1-14-39.4-34.6-40.9h0Z"/><path class="cls-10" d="M1446.9,1312c-35,14.8-70.5,28.2-106.4,40.4-54.8,18.7-110.7,34.3-166.9,48,2.7,1.6,5.4,3.3,8.1,4.9,55.5-14.3,110.3-31.4,164.2-51.3,34.2-12.6,67.9-26.7,101-41.9h0Z"/><path class="cls-12" d="M1606.6,759.4c-6.1,8.7-12.3,17.4-18.4,26.1-55.9,79.1-112.7,158.2-174.9,232.4-.5,.6,.3,1.6,.9,.9,66.2-70.6,126.5-144.3,177.5-226,6.4-10.3,12.7-20.7,18.8-31.2,1.4-2.5-2.2-4.5-3.8-2.2h0Z"/><path class="cls-12" d="M1365.3,1068.4l-.6-.6c-96.3,95.9-205,176.4-322.6,241.4,3.8,2.9,7.6,5.7,11.4,8.6,116.5-65.3,221.6-151.3,311.8-249.3h0Z"/><path class="cls-12" d="M1215.3,1321.7c77.6-34.7,153.8-72.1,223.8-120.6,63.3-43.8,122.4-93.5,176.4-148.4,17.3-17.6,34.1-35.7,50.4-54.2,13.2-15,26-30.3,38.4-45.9,24.5-30.8,56.3-66.8,68.9-104.3,2.8-8.3-7.9-12.9-13.7-8-27.2,23.6-46.9,59-69.4,87-10.9,13.7-21.9,27.2-33.1,40.6-12.4,14.8-25.1,29.5-38.2,43.7-51.5,56-108,107.6-169,153.1-104.8,78-222.8,141.4-345,190.2,4.4,3.1,8.8,6.2,13.2,9.2,32.7-13.6,65.1-28,97.4-42.4h0Z"/><path class="cls-12" d="M1345.9,1353.9c-53.9,19.9-108.7,37.1-164.2,51.3,7.2,4.3,14.5,8.5,21.9,12.6,112.8-31.4,221.9-75.7,325.6-130.1,59.8-31.4,117-66.5,171.7-105.6,15.5-11.1,30.8-22.5,46-34.3,4.5-3.5-1.4-11.3-6.2-8-13.4,9.4-26.8,18.7-40.4,27.8-12.7,8.5-25.4,16.9-38.2,25.2-66.5,48.4-139.4,87.1-215.1,119.1-33.1,15.2-66.8,29.3-101,41.9h0Z"/></g></svg>